<?xml version="1.0" encoding="utf-8"?>
<!-- Generator: Adobe Illustrator 18.1.0, SVG Export Plug-In . SVG Version: 6.00 Build 0)  -->
<!DOCTYPE svg PUBLIC "-//W3C//DTD SVG 1.1 Tiny//EN" "http://www.w3.org/Graphics/SVG/1.1/DTD/svg11-tiny.dtd">
<svg version="1.1" baseProfile="tiny" id="Calque_1"
	 xmlns="http://www.w3.org/2000/svg" xmlns:xlink="http://www.w3.org/1999/xlink" x="0px" y="0px" viewBox="0 0 227.9 59.6"
	 xml:space="preserve">
<g>
	<path fill="#00A6BB" d="M0,24.2v-6.1h9.2c3.7,0,6.8-3,6.8-6.8l0,0c0-3.7-3-6.8-6.8-6.8l0,0H1.8V1h7.4c5.7,0,10.3,4.6,10.3,10.3l0,0
		c0,5.7-4.6,10.3-10.3,10.3l0,0H3.5v2.6H0L0,24.2z M1.8,4.6L1.8,4.6L1.8,4.6L1.8,4.6z"/>
	<path fill="#00A6BB" d="M0,28.7v-2.6h0h3.5l0,2.6c0,3.7,3,6.8,6.8,6.8l0,0c3.7,0,6.8-3,6.8-6.8l0,0v-8.8h5v3.5h-1.5v5.3
		C20.6,34.4,16,39,10.3,39l0,0C4.6,39,0,34.4,0,28.7L0,28.7z"/>
</g>
<g>
	<path fill="#006868" d="M41.7,18.7v0.5c0.8-0.9,1.5-1.6,2.4-2.1s1.7-0.7,2.8-0.7c1.2,0,2.4,0.3,3.4,1c1,0.6,1.9,1.6,2.5,2.8
		c0.6,1.2,0.9,2.7,0.9,4.4c0,1.2-0.2,2.4-0.5,3.4c-0.3,1-0.8,1.9-1.4,2.6c-0.6,0.7-1.3,1.2-2.2,1.6s-1.7,0.6-2.7,0.6
		c-1.2,0-2.1-0.2-2.9-0.7c-0.8-0.5-1.5-1.1-2.2-2v6.1c0,1.8-0.6,2.7-1.9,2.7c-0.8,0-1.3-0.2-1.5-0.7s-0.4-1.1-0.4-2V18.7
		c0-0.8,0.2-1.3,0.5-1.7s0.8-0.6,1.4-0.6c0.6,0,1,0.2,1.4,0.6C41.5,17.4,41.7,17.9,41.7,18.7z M49.6,24.5c0-1.1-0.2-2-0.5-2.7
		s-0.8-1.3-1.4-1.8s-1.2-0.6-1.9-0.6c-1.1,0-2,0.4-2.8,1.3s-1.1,2.2-1.1,3.9c0,1.6,0.4,2.9,1.1,3.7c0.8,0.9,1.7,1.3,2.8,1.3
		c0.7,0,1.3-0.2,1.9-0.6c0.6-0.4,1-1,1.4-1.7C49.4,26.6,49.6,25.6,49.6,24.5z"/>
	<path fill="#006868" d="M62.3,27v3.4c0,0.8-0.2,1.4-0.6,1.8s-0.9,0.6-1.5,0.6c-0.6,0-1.1-0.2-1.4-0.6s-0.6-1-0.6-1.8V19.1
		c0-1.8,0.7-2.7,2-2.7c0.7,0,1.2,0.2,1.4,0.6s0.5,1,0.5,1.9c0.5-0.8,1-1.5,1.5-1.9s1.2-0.6,2-0.6c0.8,0,1.7,0.2,2.5,0.6
		c0.8,0.4,1.2,1,1.2,1.7c0,0.5-0.2,0.9-0.5,1.2c-0.3,0.3-0.7,0.5-1.1,0.5c-0.1,0-0.5-0.1-1.1-0.3c-0.6-0.2-1.1-0.3-1.5-0.3
		c-0.6,0-1.1,0.2-1.4,0.5c-0.4,0.3-0.7,0.8-0.9,1.4c-0.2,0.6-0.3,1.3-0.4,2.2C62.4,24.8,62.3,25.8,62.3,27z"/>
	<path fill="#006868" d="M84.3,25.6h-7.9c0,0.9,0.2,1.7,0.6,2.4c0.4,0.7,0.8,1.2,1.4,1.6c0.6,0.4,1.3,0.5,2,0.5
		c0.5,0,0.9-0.1,1.3-0.2s0.8-0.3,1.2-0.5s0.7-0.5,1-0.8c0.3-0.3,0.7-0.6,1.2-1.1c0.2-0.2,0.5-0.3,0.9-0.3c0.4,0,0.7,0.1,1,0.3
		s0.4,0.5,0.4,1c0,0.4-0.1,0.8-0.4,1.3c-0.3,0.5-0.7,1-1.3,1.4c-0.6,0.4-1.3,0.8-2.2,1.1c-0.9,0.3-1.9,0.4-3,0.4
		c-2.6,0-4.6-0.7-6-2.2c-1.4-1.5-2.2-3.5-2.2-6c0-1.2,0.2-2.3,0.5-3.3c0.4-1,0.9-1.9,1.6-2.6c0.7-0.7,1.5-1.3,2.5-1.7
		s2.1-0.6,3.3-0.6c1.6,0,2.9,0.3,4.1,1s2,1.5,2.5,2.6s0.8,2.1,0.8,3.2c0,1-0.3,1.7-0.9,2C86.2,25.5,85.4,25.6,84.3,25.6z M80.9,13.7
		l-1.5-1.7l-1.5,1.7c-0.4,0.5-0.7,0.8-0.8,0.9c-0.1,0.1-0.4,0.2-0.8,0.2h-1.2c-0.4,0-0.6-0.1-0.6-0.2c0-0.1,0.2-0.4,0.5-0.7l1.6-2
		c0.1-0.2,0.3-0.4,0.5-0.6c0.2-0.2,0.3-0.4,0.5-0.5s0.3-0.2,0.6-0.2c0.3-0.1,0.6-0.1,0.9-0.1h0.8c0.6,0,1.1,0.1,1.3,0.2
		s0.6,0.5,1.1,1.1l1.7,2c0.3,0.4,0.4,0.6,0.4,0.7c0,0.2-0.2,0.3-0.7,0.3h-1.1c-0.3,0-0.5,0-0.7-0.1c-0.2-0.1-0.3-0.2-0.5-0.4
		C81.2,14,81.1,13.8,80.9,13.7z M76.5,23.3h7.3c-0.1-1.4-0.5-2.4-1.1-3.1c-0.6-0.7-1.5-1-2.5-1c-1,0-1.8,0.3-2.5,1
		C77,20.9,76.6,22,76.5,23.3z"/>
	<path fill="#006868" d="M92.8,16.8h0.4v-2.4c0-0.6,0-1.2,0.1-1.5c0-0.4,0.1-0.7,0.3-1c0.2-0.3,0.4-0.5,0.7-0.7
		c0.3-0.2,0.6-0.3,1-0.3c0.5,0,1,0.2,1.4,0.6c0.3,0.3,0.5,0.6,0.5,0.9s0.1,0.9,0.1,1.6v2.7h1.5c0.6,0,1,0.1,1.3,0.4
		c0.3,0.3,0.5,0.6,0.5,1c0,0.5-0.2,0.9-0.6,1.1c-0.4,0.2-1,0.3-1.8,0.3h-0.8v7.4c0,0.6,0,1.1,0.1,1.5c0,0.3,0.2,0.6,0.4,0.8
		c0.2,0.2,0.5,0.3,0.9,0.3c0.2,0,0.6,0,1-0.1c0.4-0.1,0.7-0.1,0.9-0.1c0.3,0,0.6,0.1,0.9,0.4s0.4,0.6,0.4,1c0,0.6-0.4,1.1-1.1,1.5
		c-0.7,0.3-1.7,0.5-3.1,0.5c-1.3,0-2.2-0.2-2.9-0.6s-1.1-1-1.3-1.8s-0.3-1.7-0.3-3v-7.7h-0.5c-0.6,0-1-0.1-1.3-0.4
		c-0.3-0.3-0.5-0.6-0.5-1c0-0.4,0.2-0.8,0.5-1C91.7,16.9,92.2,16.8,92.8,16.8z"/>
	<path fill="#006868" d="M124.9,30.5v-0.4c-0.5,0.6-1.1,1.1-1.6,1.5s-1.1,0.7-1.7,0.9c-0.6,0.2-1.3,0.3-2,0.3c-1,0-1.9-0.2-2.7-0.6
		s-1.5-1-2.1-1.8c-0.6-0.8-1.1-1.6-1.4-2.7c-0.3-1-0.5-2.1-0.5-3.3c0-2.5,0.6-4.5,1.8-5.9c1.2-1.4,2.8-2.1,4.9-2.1
		c1.2,0,2.1,0.2,2.9,0.6c0.8,0.4,1.6,1,2.3,1.8v-5.9c0-0.8,0.2-1.5,0.5-1.9s0.8-0.6,1.4-0.6c0.6,0,1.1,0.2,1.4,0.6
		c0.3,0.4,0.5,1,0.5,1.7v17.8c0,0.8-0.2,1.3-0.5,1.7c-0.4,0.4-0.8,0.6-1.4,0.6c-0.6,0-1-0.2-1.4-0.6S124.9,31.2,124.9,30.5z
		 M117,24.6c0,1.1,0.2,2,0.5,2.8c0.3,0.8,0.8,1.3,1.4,1.7c0.6,0.4,1.2,0.6,1.9,0.6c0.7,0,1.4-0.2,1.9-0.6c0.6-0.4,1.1-0.9,1.4-1.7
		c0.3-0.8,0.5-1.7,0.5-2.9c0-1.1-0.2-2-0.5-2.8c-0.3-0.8-0.8-1.4-1.4-1.8c-0.6-0.4-1.2-0.6-2-0.6c-0.7,0-1.4,0.2-2,0.6
		c-0.6,0.4-1,1-1.4,1.8S117,23.5,117,24.6z"/>
	<path fill="#006868" d="M137.4,18.5h-3.1l-0.8-4.1v-3.6h4.5v3.6L137.4,18.5z"/>
	<path fill="#006868" d="M153.5,30.5V30c-0.5,0.6-1,1.1-1.5,1.5c-0.5,0.4-1.1,0.7-1.7,0.9c-0.6,0.2-1.3,0.3-2.2,0.3
		c-1,0-1.8-0.2-2.6-0.6s-1.4-1-1.8-1.7c-0.5-0.9-0.8-2.1-0.8-3.7v-8c0-0.8,0.2-1.4,0.5-1.8c0.4-0.4,0.8-0.6,1.4-0.6
		c0.6,0,1.1,0.2,1.5,0.6s0.6,1,0.6,1.8v6.5c0,0.9,0.1,1.7,0.2,2.4c0.2,0.6,0.4,1.1,0.8,1.5c0.4,0.4,1,0.5,1.7,0.5
		c0.7,0,1.3-0.2,1.9-0.6c0.6-0.4,1-0.9,1.3-1.6c0.2-0.6,0.3-1.8,0.3-3.8v-4.9c0-0.8,0.2-1.4,0.6-1.8c0.4-0.4,0.9-0.6,1.5-0.6
		c0.6,0,1.1,0.2,1.4,0.6s0.5,1,0.5,1.8v11.7c0,0.8-0.2,1.3-0.5,1.7c-0.3,0.4-0.8,0.6-1.4,0.6s-1-0.2-1.4-0.6
		C153.7,31.8,153.5,31.3,153.5,30.5z"/>
	<path fill="#006868" d="M166.5,18.6v0.5c0.7-0.9,1.5-1.6,2.3-2.1c0.8-0.4,1.8-0.7,2.9-0.7c1.1,0,2,0.2,2.8,0.7
		c0.8,0.5,1.5,1.1,1.9,2c0.3,0.5,0.4,1,0.5,1.6c0.1,0.6,0.1,1.3,0.1,2.2v7.5c0,0.8-0.2,1.4-0.6,1.8s-0.8,0.6-1.4,0.6
		c-0.6,0-1.1-0.2-1.5-0.6c-0.4-0.4-0.6-1-0.6-1.8v-6.7c0-1.3-0.2-2.3-0.6-3c-0.4-0.7-1.1-1.1-2.2-1.1c-0.7,0-1.4,0.2-2,0.6
		c-0.6,0.4-1,1-1.3,1.8c-0.2,0.6-0.3,1.7-0.3,3.4v5c0,0.8-0.2,1.4-0.6,1.8s-0.9,0.6-1.5,0.6c-0.6,0-1.1-0.2-1.4-0.6
		c-0.4-0.4-0.6-1-0.6-1.8V18.7c0-0.8,0.2-1.3,0.5-1.7c0.3-0.4,0.8-0.6,1.4-0.6c0.4,0,0.7,0.1,1,0.3c0.3,0.2,0.5,0.4,0.7,0.8
		S166.5,18.2,166.5,18.6z"/>
	<path fill="#006868" d="M184.6,14.5c-0.6,0-1-0.2-1.4-0.5c-0.4-0.3-0.6-0.8-0.6-1.5c0-0.6,0.2-1,0.6-1.4c0.4-0.4,0.9-0.6,1.4-0.6
		c0.5,0,1,0.2,1.4,0.5c0.4,0.3,0.6,0.8,0.6,1.5c0,0.6-0.2,1.1-0.6,1.5C185.6,14.4,185.2,14.5,184.6,14.5z M186.6,18.7v11.6
		c0,0.8-0.2,1.4-0.6,1.8s-0.9,0.6-1.5,0.6s-1.1-0.2-1.4-0.6c-0.4-0.4-0.6-1-0.6-1.8V18.8c0-0.8,0.2-1.4,0.6-1.8
		c0.4-0.4,0.8-0.6,1.4-0.6s1.1,0.2,1.5,0.6S186.6,18,186.6,18.7z"/>
	<path fill="#006868" d="M207.4,24.6c0,1.2-0.2,2.3-0.6,3.3s-0.9,1.9-1.6,2.6s-1.6,1.3-2.5,1.7c-1,0.4-2.1,0.6-3.3,0.6
		c-1.2,0-2.3-0.2-3.3-0.6c-1-0.4-1.8-1-2.5-1.7c-0.7-0.7-1.3-1.6-1.6-2.6c-0.4-1-0.6-2.1-0.6-3.3c0-1.2,0.2-2.3,0.6-3.4
		s0.9-1.9,1.6-2.6c0.7-0.7,1.5-1.3,2.5-1.7c1-0.4,2.1-0.6,3.3-0.6c1.2,0,2.3,0.2,3.3,0.6c1,0.4,1.8,1,2.6,1.7s1.2,1.6,1.6,2.6
		C207.2,22.3,207.4,23.4,207.4,24.6z M203.3,24.6c0-1.6-0.4-2.9-1.1-3.8c-0.7-0.9-1.7-1.4-2.9-1.4c-0.8,0-1.5,0.2-2.1,0.6
		c-0.6,0.4-1.1,1-1.4,1.8c-0.3,0.8-0.5,1.7-0.5,2.8c0,1.1,0.2,2,0.5,2.8c0.3,0.8,0.8,1.4,1.4,1.8c0.6,0.4,1.3,0.6,2.1,0.6
		c1.2,0,2.2-0.5,2.9-1.4C203,27.5,203.3,26.2,203.3,24.6z"/>
	<path fill="#006868" d="M215.7,18.6v0.5c0.7-0.9,1.5-1.6,2.3-2.1c0.8-0.4,1.8-0.7,2.9-0.7c1.1,0,2,0.2,2.8,0.7
		c0.8,0.5,1.5,1.1,1.9,2c0.3,0.5,0.4,1,0.5,1.6c0.1,0.6,0.1,1.3,0.1,2.2v7.5c0,0.8-0.2,1.4-0.6,1.8s-0.8,0.6-1.4,0.6
		c-0.6,0-1.1-0.2-1.5-0.6c-0.4-0.4-0.6-1-0.6-1.8v-6.7c0-1.3-0.2-2.3-0.6-3c-0.4-0.7-1.1-1.1-2.2-1.1c-0.7,0-1.4,0.2-2,0.6
		c-0.6,0.4-1,1-1.3,1.8c-0.2,0.6-0.3,1.7-0.3,3.4v5c0,0.8-0.2,1.4-0.6,1.8s-0.9,0.6-1.5,0.6c-0.6,0-1.1-0.2-1.4-0.6
		c-0.4-0.4-0.6-1-0.6-1.8V18.7c0-0.8,0.2-1.3,0.5-1.7c0.3-0.4,0.8-0.6,1.4-0.6c0.4,0,0.7,0.1,1,0.3c0.3,0.2,0.5,0.4,0.7,0.8
		S215.7,18.2,215.7,18.6z"/>
</g>
<g>
	<path fill="#8A8A8A" d="M0.9,57.2v-8.7h3.3c0.6,0,1,0,1.3,0.1c0.4,0.1,0.8,0.2,1.1,0.4c0.3,0.2,0.5,0.5,0.7,0.8
		c0.2,0.4,0.3,0.8,0.3,1.2c0,0.7-0.2,1.4-0.7,1.9c-0.5,0.5-1.3,0.8-2.6,0.8H2.1v3.5H0.9z M2.1,52.6h2.2c0.7,0,1.3-0.1,1.6-0.4
		c0.3-0.3,0.5-0.7,0.5-1.2c0-0.4-0.1-0.7-0.3-0.9c-0.2-0.3-0.4-0.4-0.7-0.5c-0.2-0.1-0.6-0.1-1.1-0.1H2.1V52.6z"/>
	<path fill="#8A8A8A" d="M9.6,57.2v-6.3h1v1c0.2-0.4,0.5-0.7,0.7-0.9s0.4-0.2,0.7-0.2c0.4,0,0.7,0.1,1.1,0.3l-0.4,1
		c-0.3-0.2-0.5-0.2-0.8-0.2c-0.2,0-0.4,0.1-0.6,0.2c-0.2,0.1-0.3,0.3-0.4,0.6c-0.1,0.4-0.2,0.8-0.2,1.2v3.3H9.6z"/>
	<path fill="#8A8A8A" d="M18.7,55.1l1.1,0.1c-0.2,0.6-0.5,1.1-1,1.5s-1.1,0.5-1.8,0.5c-0.9,0-1.7-0.3-2.2-0.9
		c-0.5-0.6-0.8-1.4-0.8-2.4c0-1.1,0.3-1.9,0.8-2.5c0.5-0.6,1.3-0.9,2.1-0.9c0.8,0,1.5,0.3,2.1,0.9c0.5,0.6,0.8,1.4,0.8,2.4
		c0,0.1,0,0.2,0,0.3h-4.7c0,0.7,0.2,1.2,0.6,1.6c0.4,0.4,0.8,0.6,1.3,0.6c0.4,0,0.7-0.1,1-0.3C18.4,55.9,18.6,55.6,18.7,55.1z
		 M17,49.1l-0.7,1h-1.2l1.3-1.7h1.1l1.3,1.7h-1.2L17,49.1z M15.2,53.4h3.5c0-0.5-0.2-0.9-0.4-1.2c-0.3-0.4-0.8-0.6-1.3-0.6
		c-0.5,0-0.9,0.2-1.2,0.5S15.3,52.8,15.2,53.4z"/>
	<path fill="#8A8A8A" d="M24.2,56.2l0.2,0.9c-0.3,0.1-0.6,0.1-0.8,0.1c-0.4,0-0.7-0.1-0.9-0.2c-0.2-0.1-0.4-0.3-0.5-0.5
		c-0.1-0.2-0.1-0.6-0.1-1.3v-3.6h-0.8v-0.8h0.8v-1.6l1.1-0.6v2.2h1.1v0.8h-1.1v3.7c0,0.3,0,0.5,0.1,0.6c0,0.1,0.1,0.2,0.2,0.2
		c0.1,0.1,0.2,0.1,0.4,0.1C23.9,56.2,24.1,56.2,24.2,56.2z"/>
	<path fill="#8A8A8A" d="M30.3,55.1l1.1,0.1c-0.2,0.6-0.5,1.1-1,1.5s-1.1,0.5-1.8,0.5c-0.9,0-1.7-0.3-2.2-0.9
		c-0.5-0.6-0.8-1.4-0.8-2.4c0-1.1,0.3-1.9,0.8-2.5c0.5-0.6,1.3-0.9,2.1-0.9c0.8,0,1.5,0.3,2.1,0.9c0.5,0.6,0.8,1.4,0.8,2.4
		c0,0.1,0,0.2,0,0.3h-4.7c0,0.7,0.2,1.2,0.6,1.6c0.4,0.4,0.8,0.6,1.3,0.6c0.4,0,0.7-0.1,1-0.3C30,55.9,30.2,55.6,30.3,55.1z
		 M26.8,53.4h3.5c0-0.5-0.2-0.9-0.4-1.2c-0.3-0.4-0.8-0.6-1.3-0.6c-0.5,0-0.9,0.2-1.2,0.5S26.9,52.8,26.8,53.4z"/>
	<path fill="#8A8A8A" d="M32.9,57.2v-0.9l4-4.6c-0.5,0-0.9,0-1.2,0h-2.6v-0.9h5.2v0.7l-3.4,4l-0.7,0.7c0.5,0,0.9-0.1,1.3-0.1h2.9
		v0.9H32.9z"/>
	<path fill="#8A8A8A" d="M40.6,57.2v-1.2h1.2v1.2H40.6z"/>
	<path fill="#8A8A8A" d="M48.7,57.2v-8.7H55v1h-5.1v2.7h4.8v1h-4.8v3h5.3v1H48.7z"/>
	<path fill="#8A8A8A" d="M57.4,57.2v-6.3h1v0.9c0.2-0.3,0.5-0.6,0.8-0.7s0.7-0.3,1.1-0.3c0.5,0,0.8,0.1,1.1,0.3
		c0.3,0.2,0.5,0.5,0.6,0.8c0.5-0.7,1.1-1.1,1.9-1.1c0.6,0,1.1,0.2,1.4,0.5c0.3,0.3,0.5,0.9,0.5,1.6v4.3h-1.1v-4c0-0.4,0-0.7-0.1-0.9
		c-0.1-0.2-0.2-0.3-0.4-0.5c-0.2-0.1-0.4-0.2-0.6-0.2c-0.4,0-0.8,0.1-1.1,0.4s-0.4,0.8-0.4,1.4v3.7h-1.1v-4.1c0-0.5-0.1-0.8-0.3-1.1
		c-0.2-0.2-0.5-0.4-0.9-0.4c-0.3,0-0.6,0.1-0.8,0.2c-0.3,0.2-0.4,0.4-0.6,0.7c-0.1,0.3-0.2,0.7-0.2,1.3v3.3H57.4z"/>
	<path fill="#8A8A8A" d="M68.2,59.6v-8.7h1v0.8c0.2-0.3,0.5-0.6,0.8-0.7c0.3-0.2,0.6-0.2,1.1-0.2c0.5,0,1,0.1,1.4,0.4
		c0.4,0.3,0.7,0.7,0.9,1.2c0.2,0.5,0.3,1.1,0.3,1.7c0,0.6-0.1,1.2-0.3,1.7s-0.6,0.9-1,1.2c-0.4,0.3-0.9,0.4-1.4,0.4
		c-0.4,0-0.7-0.1-1-0.2c-0.3-0.2-0.5-0.3-0.7-0.6v3.1H68.2z M69.2,54c0,0.8,0.2,1.4,0.5,1.8c0.3,0.4,0.7,0.6,1.2,0.6
		c0.5,0,0.9-0.2,1.2-0.6c0.3-0.4,0.5-1,0.5-1.9c0-0.8-0.2-1.4-0.5-1.8c-0.3-0.4-0.7-0.6-1.2-0.6c-0.5,0-0.9,0.2-1.2,0.6
		C69.4,52.6,69.2,53.2,69.2,54z"/>
	<path fill="#8A8A8A" d="M75.7,57.2v-6.3h1v1c0.2-0.4,0.5-0.7,0.7-0.9s0.4-0.2,0.7-0.2c0.4,0,0.7,0.1,1.1,0.3l-0.4,1
		c-0.3-0.2-0.5-0.2-0.8-0.2c-0.2,0-0.4,0.1-0.6,0.2c-0.2,0.1-0.3,0.3-0.4,0.6c-0.1,0.4-0.2,0.8-0.2,1.2v3.3H75.7z"/>
	<path fill="#8A8A8A" d="M84.6,57.2v-0.9c-0.5,0.7-1.2,1.1-2,1.1c-0.4,0-0.7-0.1-1-0.2s-0.6-0.3-0.7-0.5s-0.3-0.5-0.3-0.8
		c0-0.2-0.1-0.5-0.1-1v-3.9h1.1v3.5c0,0.6,0,0.9,0.1,1.1c0.1,0.3,0.2,0.5,0.4,0.7c0.2,0.2,0.5,0.2,0.8,0.2c0.3,0,0.6-0.1,0.9-0.2
		s0.5-0.4,0.6-0.7c0.1-0.3,0.2-0.7,0.2-1.2v-3.4h1.1v6.3H84.6z"/>
	<path fill="#8A8A8A" d="M88,57.2v-6.3h1v0.9c0.5-0.7,1.1-1,2-1c0.4,0,0.7,0.1,1,0.2s0.6,0.3,0.7,0.5c0.2,0.2,0.3,0.5,0.3,0.8
		c0,0.2,0.1,0.5,0.1,1v3.9H92v-3.8c0-0.4,0-0.8-0.1-1c-0.1-0.2-0.2-0.4-0.4-0.5c-0.2-0.1-0.5-0.2-0.7-0.2c-0.5,0-0.8,0.1-1.2,0.4
		c-0.3,0.3-0.5,0.8-0.5,1.6v3.4H88z"/>
	<path fill="#8A8A8A" d="M97.8,56.2l0.2,0.9c-0.3,0.1-0.6,0.1-0.8,0.1c-0.4,0-0.7-0.1-0.9-0.2c-0.2-0.1-0.4-0.3-0.5-0.5
		c-0.1-0.2-0.1-0.6-0.1-1.3v-3.6h-0.8v-0.8h0.8v-1.6l1.1-0.6v2.2h1.1v0.8h-1.1v3.7c0,0.3,0,0.5,0.1,0.6c0,0.1,0.1,0.2,0.2,0.2
		c0.1,0.1,0.2,0.1,0.4,0.1C97.4,56.2,97.6,56.2,97.8,56.2z"/>
	<path fill="#8A8A8A" d="M103.9,55.1l1.1,0.1c-0.2,0.6-0.5,1.1-1,1.5s-1.1,0.5-1.8,0.5c-0.9,0-1.7-0.3-2.2-0.9
		c-0.5-0.6-0.8-1.4-0.8-2.4c0-1.1,0.3-1.9,0.8-2.5c0.5-0.6,1.3-0.9,2.1-0.9c0.8,0,1.5,0.3,2.1,0.9c0.5,0.6,0.8,1.4,0.8,2.4
		c0,0.1,0,0.2,0,0.3h-4.7c0,0.7,0.2,1.2,0.6,1.6c0.4,0.4,0.8,0.6,1.3,0.6c0.4,0,0.7-0.1,1-0.3C103.5,55.9,103.7,55.6,103.9,55.1z
		 M100.4,53.4h3.5c0-0.5-0.2-0.9-0.4-1.2c-0.3-0.4-0.8-0.6-1.3-0.6c-0.5,0-0.9,0.2-1.2,0.5S100.4,52.8,100.4,53.4z"/>
	<path fill="#8A8A8A" d="M106.5,57.2v-0.9l4-4.6c-0.5,0-0.9,0-1.2,0h-2.6v-0.9h5.2v0.7l-3.4,4l-0.7,0.7c0.5,0,0.9-0.1,1.3-0.1h2.9
		v0.9H106.5z"/>
	<path fill="#8A8A8A" d="M114.2,57.2v-1.2h1.2v1.2H114.2z"/>
	<path fill="#8A8A8A" d="M122.2,57.2v-8.7h6.3v1h-5.1v2.7h4.8v1h-4.8v3h5.3v1H122.2z"/>
	<path fill="#8A8A8A" d="M130.9,57.2v-6.3h1v0.9c0.5-0.7,1.1-1,2-1c0.4,0,0.7,0.1,1,0.2s0.6,0.3,0.7,0.5c0.2,0.2,0.3,0.5,0.3,0.8
		c0,0.2,0.1,0.5,0.1,1v3.9H135v-3.8c0-0.4,0-0.8-0.1-1c-0.1-0.2-0.2-0.4-0.4-0.5c-0.2-0.1-0.5-0.2-0.7-0.2c-0.5,0-0.8,0.1-1.2,0.4
		c-0.3,0.3-0.5,0.8-0.5,1.6v3.4H130.9z"/>
	<path fill="#8A8A8A" d="M140.7,56.2l0.2,0.9c-0.3,0.1-0.6,0.1-0.8,0.1c-0.4,0-0.7-0.1-0.9-0.2c-0.2-0.1-0.4-0.3-0.5-0.5
		c-0.1-0.2-0.1-0.6-0.1-1.3v-3.6h-0.8v-0.8h0.8v-1.6l1.1-0.6v2.2h1.1v0.8h-1.1v3.7c0,0.3,0,0.5,0.1,0.6c0,0.1,0.1,0.2,0.2,0.2
		c0.1,0.1,0.2,0.1,0.4,0.1C140.4,56.2,140.5,56.2,140.7,56.2z"/>
	<path fill="#8A8A8A" d="M142.5,57.2v-6.3h1v1c0.2-0.4,0.5-0.7,0.7-0.9s0.4-0.2,0.7-0.2c0.4,0,0.7,0.1,1.1,0.3l-0.4,1
		c-0.3-0.2-0.5-0.2-0.8-0.2c-0.2,0-0.4,0.1-0.6,0.2c-0.2,0.1-0.3,0.3-0.4,0.6c-0.1,0.4-0.2,0.8-0.2,1.2v3.3H142.5z"/>
	<path fill="#8A8A8A" d="M151.6,55.1l1.1,0.1c-0.2,0.6-0.5,1.1-1,1.5s-1.1,0.5-1.8,0.5c-0.9,0-1.7-0.3-2.2-0.9
		c-0.5-0.6-0.8-1.4-0.8-2.4c0-1.1,0.3-1.9,0.8-2.5c0.5-0.6,1.3-0.9,2.1-0.9c0.8,0,1.5,0.3,2.1,0.9c0.5,0.6,0.8,1.4,0.8,2.4
		c0,0.1,0,0.2,0,0.3H148c0,0.7,0.2,1.2,0.6,1.6c0.4,0.4,0.8,0.6,1.3,0.6c0.4,0,0.7-0.1,1-0.3C151.2,55.9,151.4,55.6,151.6,55.1z
		 M148.1,53.4h3.5c0-0.5-0.2-0.9-0.4-1.2c-0.3-0.4-0.8-0.6-1.3-0.6c-0.5,0-0.9,0.2-1.2,0.5S148.1,52.8,148.1,53.4z"/>
	<path fill="#8A8A8A" d="M158.9,59.6v-8.7h1v0.8c0.2-0.3,0.5-0.6,0.8-0.7c0.3-0.2,0.6-0.2,1.1-0.2c0.5,0,1,0.1,1.4,0.4
		c0.4,0.3,0.7,0.7,0.9,1.2c0.2,0.5,0.3,1.1,0.3,1.7c0,0.6-0.1,1.2-0.3,1.7s-0.6,0.9-1,1.2c-0.4,0.3-0.9,0.4-1.4,0.4
		c-0.4,0-0.7-0.1-1-0.2c-0.3-0.2-0.5-0.3-0.7-0.6v3.1H158.9z M159.8,54c0,0.8,0.2,1.4,0.5,1.8c0.3,0.4,0.7,0.6,1.2,0.6
		c0.5,0,0.9-0.2,1.2-0.6c0.3-0.4,0.5-1,0.5-1.9c0-0.8-0.2-1.4-0.5-1.8c-0.3-0.4-0.7-0.6-1.2-0.6c-0.5,0-0.9,0.2-1.2,0.6
		C160,52.6,159.8,53.2,159.8,54z"/>
	<path fill="#8A8A8A" d="M170.5,56.4c-0.4,0.3-0.8,0.6-1.1,0.7c-0.4,0.1-0.8,0.2-1.2,0.2c-0.7,0-1.2-0.2-1.6-0.5
		c-0.4-0.3-0.6-0.8-0.6-1.3c0-0.3,0.1-0.6,0.2-0.8c0.1-0.3,0.3-0.5,0.6-0.6s0.5-0.3,0.8-0.3c0.2-0.1,0.5-0.1,0.9-0.2
		c0.9-0.1,1.5-0.2,1.9-0.4c0-0.1,0-0.2,0-0.3c0-0.4-0.1-0.7-0.3-0.9c-0.3-0.2-0.7-0.4-1.2-0.4c-0.5,0-0.9,0.1-1.1,0.3
		c-0.2,0.2-0.4,0.5-0.5,0.9l-1-0.1c0.1-0.4,0.3-0.8,0.5-1.1c0.2-0.3,0.5-0.5,0.9-0.6c0.4-0.1,0.9-0.2,1.4-0.2c0.5,0,1,0.1,1.3,0.2
		s0.6,0.3,0.7,0.5c0.2,0.2,0.3,0.4,0.3,0.7c0,0.2,0.1,0.5,0.1,1v1.4c0,1,0,1.6,0.1,1.9c0,0.3,0.1,0.5,0.3,0.8h-1.1
		C170.6,56.9,170.5,56.7,170.5,56.4z M170.4,54c-0.4,0.2-1,0.3-1.7,0.4c-0.4,0.1-0.8,0.1-0.9,0.2c-0.2,0.1-0.3,0.2-0.4,0.3
		c-0.1,0.2-0.1,0.3-0.1,0.5c0,0.3,0.1,0.5,0.3,0.7c0.2,0.2,0.5,0.3,0.9,0.3c0.4,0,0.8-0.1,1.1-0.3c0.3-0.2,0.6-0.4,0.7-0.7
		c0.1-0.2,0.2-0.6,0.2-1.1V54z"/>
	<path fill="#8A8A8A" d="M173.8,57.2v-6.3h1v1c0.2-0.4,0.5-0.7,0.7-0.9s0.4-0.2,0.7-0.2c0.4,0,0.7,0.1,1.1,0.3l-0.4,1
		c-0.3-0.2-0.5-0.2-0.8-0.2c-0.2,0-0.4,0.1-0.6,0.2c-0.2,0.1-0.3,0.3-0.4,0.6c-0.1,0.4-0.2,0.8-0.2,1.2v3.3H173.8z"/>
	<path fill="#8A8A8A" d="M181,56.2l0.2,0.9c-0.3,0.1-0.6,0.1-0.8,0.1c-0.4,0-0.7-0.1-0.9-0.2c-0.2-0.1-0.4-0.3-0.5-0.5
		c-0.1-0.2-0.1-0.6-0.1-1.3v-3.6H178v-0.8h0.8v-1.6l1.1-0.6v2.2h1.1v0.8h-1.1v3.7c0,0.3,0,0.5,0.1,0.6c0,0.1,0.1,0.2,0.2,0.2
		c0.1,0.1,0.2,0.1,0.4,0.1C180.6,56.2,180.8,56.2,181,56.2z"/>
	<path fill="#8A8A8A" d="M182.7,49.7v-1.2h1.1v1.2H182.7z M182.7,57.2v-6.3h1.1v6.3H182.7z"/>
	<path fill="#8A8A8A" d="M190.3,54.8l1.1,0.1c-0.1,0.7-0.4,1.3-0.9,1.7s-1.1,0.6-1.7,0.6c-0.9,0-1.6-0.3-2.1-0.8
		c-0.5-0.6-0.8-1.4-0.8-2.4c0-0.7,0.1-1.3,0.3-1.8c0.2-0.5,0.6-0.9,1-1.1c0.5-0.3,1-0.4,1.5-0.4c0.7,0,1.2,0.2,1.7,0.5
		c0.4,0.3,0.7,0.8,0.8,1.5l-1,0.2c-0.1-0.4-0.3-0.7-0.5-1c-0.3-0.2-0.6-0.3-0.9-0.3c-0.5,0-1,0.2-1.3,0.6s-0.5,1-0.5,1.8
		c0,0.8,0.2,1.5,0.5,1.8c0.3,0.4,0.7,0.6,1.3,0.6c0.4,0,0.8-0.1,1.1-0.4C190,55.8,190.2,55.4,190.3,54.8z"/>
	<path fill="#8A8A8A" d="M197.1,57.2v-0.9c-0.5,0.7-1.2,1.1-2,1.1c-0.4,0-0.7-0.1-1-0.2s-0.6-0.3-0.7-0.5s-0.3-0.5-0.3-0.8
		c0-0.2-0.1-0.5-0.1-1v-3.9h1.1v3.5c0,0.6,0,0.9,0.1,1.1c0.1,0.3,0.2,0.5,0.4,0.7c0.2,0.2,0.5,0.2,0.8,0.2c0.3,0,0.6-0.1,0.9-0.2
		s0.5-0.4,0.6-0.7c0.1-0.3,0.2-0.7,0.2-1.2v-3.4h1.1v6.3H197.1z"/>
	<path fill="#8A8A8A" d="M200.4,57.2v-8.7h1.1v8.7H200.4z"/>
	<path fill="#8A8A8A" d="M203.9,49.7v-1.2h1.1v1.2H203.9z M203.9,57.2v-6.3h1.1v6.3H203.9z"/>
	<path fill="#8A8A8A" d="M211.6,55.1l1.1,0.1c-0.2,0.6-0.5,1.1-1,1.5s-1.1,0.5-1.8,0.5c-0.9,0-1.7-0.3-2.2-0.9
		c-0.5-0.6-0.8-1.4-0.8-2.4c0-1.1,0.3-1.9,0.8-2.5c0.5-0.6,1.3-0.9,2.1-0.9c0.8,0,1.5,0.3,2.1,0.9c0.5,0.6,0.8,1.4,0.8,2.4
		c0,0.1,0,0.2,0,0.3h-4.7c0,0.7,0.2,1.2,0.6,1.6c0.4,0.4,0.8,0.6,1.3,0.6c0.4,0,0.7-0.1,1-0.3C211.3,55.9,211.5,55.6,211.6,55.1z
		 M208.1,53.4h3.5c0-0.5-0.2-0.9-0.4-1.2c-0.3-0.4-0.8-0.6-1.3-0.6c-0.5,0-0.9,0.2-1.2,0.5S208.2,52.8,208.1,53.4z"/>
	<path fill="#8A8A8A" d="M214.8,57.2v-6.3h1v1c0.2-0.4,0.5-0.7,0.7-0.9s0.4-0.2,0.7-0.2c0.4,0,0.7,0.1,1.1,0.3l-0.4,1
		c-0.3-0.2-0.5-0.2-0.8-0.2c-0.2,0-0.4,0.1-0.6,0.2c-0.2,0.1-0.3,0.3-0.4,0.6c-0.1,0.4-0.2,0.8-0.2,1.2v3.3H214.8z"/>
	<path fill="#8A8A8A" d="M219.2,55.3l1.1-0.2c0.1,0.4,0.2,0.7,0.5,1s0.6,0.3,1.1,0.3c0.5,0,0.9-0.1,1.1-0.3c0.2-0.2,0.4-0.4,0.4-0.7
		c0-0.2-0.1-0.4-0.3-0.6c-0.1-0.1-0.5-0.2-1.1-0.4c-0.8-0.2-1.3-0.4-1.6-0.5s-0.5-0.3-0.7-0.6s-0.2-0.5-0.2-0.8
		c0-0.3,0.1-0.5,0.2-0.8c0.1-0.2,0.3-0.4,0.5-0.6c0.2-0.1,0.4-0.2,0.7-0.3c0.3-0.1,0.6-0.1,0.9-0.1c0.5,0,0.9,0.1,1.3,0.2
		c0.4,0.1,0.6,0.3,0.8,0.6c0.2,0.2,0.3,0.6,0.4,1l-1,0.1c0-0.3-0.2-0.6-0.4-0.8c-0.2-0.2-0.5-0.3-1-0.3c-0.5,0-0.8,0.1-1.1,0.2
		c-0.2,0.2-0.3,0.4-0.3,0.6c0,0.1,0,0.3,0.1,0.4c0.1,0.1,0.2,0.2,0.4,0.3c0.1,0,0.4,0.1,0.9,0.3c0.8,0.2,1.3,0.4,1.6,0.5
		c0.3,0.1,0.5,0.3,0.7,0.6c0.2,0.2,0.3,0.5,0.3,0.9c0,0.4-0.1,0.7-0.3,1c-0.2,0.3-0.5,0.6-0.9,0.7c-0.4,0.2-0.8,0.3-1.3,0.3
		c-0.8,0-1.4-0.2-1.9-0.5C219.5,56.4,219.3,55.9,219.2,55.3z"/>
	<path fill="#8A8A8A" d="M226.7,57.2v-1.2h1.2v1.2H226.7z"/>
</g>
</svg>
