<?xml version="1.0" encoding="utf-8"?>
<!-- Generator: Adobe Illustrator 18.1.0, SVG Export Plug-In . SVG Version: 6.00 Build 0)  -->
<!DOCTYPE svg PUBLIC "-//W3C//DTD SVG 1.1 Tiny//EN" "http://www.w3.org/Graphics/SVG/1.1/DTD/svg11-tiny.dtd">
<svg version="1.1" baseProfile="tiny" id="Calque_1"
	 xmlns="http://www.w3.org/2000/svg" xmlns:xlink="http://www.w3.org/1999/xlink" x="0px" y="0px" viewBox="0 0 213.9 71.4"
	 xml:space="preserve">
<g>
	<path fill="#006B6A" d="M22.2,25l-1.6-1.4l-1.4-1.8l-0.9-1.6l-0.3-0.7c0,0-0.1,0-0.2,0c-0.1,0-0.2,0-0.4,0c-0.1,0-0.2,0-0.3,0
		c-0.1,0-0.2,0-0.2,0c-0.1,0-0.1,0-0.3,0c-0.1,0-0.2,0-0.3,0c0,0-0.1,0-0.1,0c-0.1,0-0.1,0-0.2,0c0,0-0.1,0-0.1,0l0.4-0.2l1.5-0.5
		c0,0,0-0.1,0-0.1c0-0.1,0-0.1,0-0.1l0.3,0.2l1.9-0.6c0,0,0.1,0,0.1,0c0.1,0,0.1-0.1,0.2-0.1c0.1,0,0.1-0.1,0.2-0.1
		c0.1,0,0.1-0.1,0.2-0.1c0,0,0.1,0,0.2-0.1c0.1-0.1,0.2-0.1,0.3-0.2c0.1-0.1,0.2-0.1,0.2-0.2c0.1,0,0.1-0.1,0.1-0.1
		c0,0,0.1,0,0.1-0.1c0.1,0,0.1-0.1,0.2-0.2c0.1-0.1,0.1-0.1,0.2-0.2c0.1-0.1,0.1-0.1,0.1-0.1c0,0,0,0,0.1-0.1c0,0,0.1-0.1,0.1-0.2
		c0-0.1,0.1-0.1,0.1-0.2c0-0.1,0.1-0.1,0.1-0.1c0.1-0.1,0.1-0.2,0.2-0.3c0.1-0.1,0.1-0.3,0.1-0.4c0-0.1,0-0.2-0.1-0.2
		C23,15.1,22.9,15,22.8,15c-0.1-0.1-0.2-0.1-0.3-0.1c-0.1,0-0.2-0.1-0.2-0.1c-0.1,0-0.1,0-0.3-0.1c-0.1,0-0.2,0-0.2,0l-4,0l-0.4,0
		l-0.5,0c-0.1,0-0.2,0-0.5,0.1l0,0l-4.3,11.4c0,0-0.1,0.1-0.1,0.2s-0.1,0.1-0.1,0.2c0-0.1-0.1-0.1-0.1-0.2c0-0.1,0-0.1,0-0.2l0,0
		l0.6-3.1l2.5-6.8l0.6-1.3l-0.3,0l-2.4,0.6l-0.3,0c0-0.1,0.1-0.1,0.1-0.2c0-0.1,0.1-0.1,0.2-0.1c0,0,0.1-0.1,0.3-0.2
		c0.1-0.1,0.2-0.1,0.3-0.2c0.4-0.2,0.9-0.4,1.3-0.5c0.4-0.2,0.9-0.3,1.4-0.4l0.7-0.8c0,0,0,0.1,0,0.3c0,0.2,0,0.3,0,0.3l0,0.1
		c0.4,0,0.8-0.1,1.2-0.1s0.8-0.1,1.2-0.1l1.1-0.1c0.1,0,0.2,0,0.3,0c0.1,0,0.3,0,0.5,0c0.2,0,0.3,0,0.4,0c0.1,0,0.2,0,0.3,0
		c0.3,0,0.6,0,0.9,0.1c0.3,0.1,0.6,0.2,0.8,0.3c0.3,0.1,0.5,0.3,0.7,0.5s0.3,0.5,0.3,0.8c0,0.3-0.1,0.7-0.2,1
		c-0.2,0.3-0.4,0.6-0.7,0.9c-0.3,0.3-0.6,0.5-0.9,0.8c-0.3,0.2-0.6,0.4-0.9,0.5c-0.1,0-0.1,0.1-0.3,0.1c-0.1,0-0.2,0.1-0.3,0.1
		c-0.1,0-0.2,0.1-0.3,0.1c-0.1,0-0.1,0.1-0.2,0.1l-1.8,0.4l2.6,3.4l3.6,3.5c0,0,0,0.1,0.1,0.1c0,0.1,0.1,0.1,0.1,0.1c0,0,0,0,0,0.1
		l-0.1,0c-0.1,0-0.2,0-0.3,0l-1.1-0.5L22.2,25z"/>
	<path fill="#006B6A" d="M25.1,25.5l0.1-1l0.8-3l0.9-2.1l0.9-1.4c0.1-0.2,0.3-0.4,0.5-0.6c0.2-0.2,0.4-0.4,0.6-0.6
		c0.2-0.2,0.5-0.3,0.7-0.4c0.3-0.1,0.5-0.2,0.8-0.2c0.2,0,0.4,0,0.7,0.1c0.2,0,0.4,0.1,0.6,0.2c0.2,0.1,0.3,0.3,0.5,0.4
		c0.1,0.2,0.2,0.4,0.2,0.6c0,0.4,0,0.8-0.2,1.1c-0.2,0.4-0.4,0.7-0.6,1c-0.2,0.3-0.4,0.6-0.7,0.8c-0.2,0.3-0.5,0.5-0.8,0.7
		c-0.3,0.2-0.6,0.4-0.9,0.6c-0.3,0.1-0.7,0.2-1.1,0.3c-0.1,0-0.2,0-0.3,0c-0.1,0-0.2,0-0.3,0c0,0-0.1,0-0.3,0c-0.2,0-0.2,0-0.3-0.1
		l0,0l0,0l-0.8,2.5l-0.2,1l0,0.1c0,0.1,0,0.1,0.1,0.2c0.1,0,0.1,0,0.2,0.1s0.2,0,0.2,0c0.1,0,0.2,0,0.2,0c0.1,0,0.3,0,0.5-0.1
		c0.2,0,0.3-0.1,0.5-0.1l1.2-0.8l3.3-2.8l0.4-0.2l-0.2,0.3l-2.1,2.5c0,0-0.1,0.1-0.2,0.2c-0.1,0.1-0.2,0.2-0.3,0.3
		c-0.1,0.1-0.2,0.2-0.3,0.3c-0.1,0.1-0.2,0.2-0.2,0.2c-0.4,0.3-0.8,0.6-1.2,0.8c-0.4,0.2-0.9,0.4-1.4,0.4c-0.2,0-0.4,0-0.6,0
		c-0.2,0-0.4-0.1-0.5-0.2c-0.2-0.1-0.3-0.2-0.4-0.4c-0.1-0.2-0.2-0.3-0.2-0.6L25.1,25.5z M27.3,21.7c0.2,0,0.3,0,0.5,0
		c0.2,0,0.3,0,0.5-0.1c0.3-0.1,0.6-0.2,0.9-0.4c0.3-0.2,0.5-0.4,0.8-0.7s0.5-0.5,0.7-0.8c0.2-0.3,0.4-0.6,0.5-0.8
		c0.1-0.2,0.2-0.4,0.3-0.6c0.1-0.2,0.1-0.4,0.1-0.6c0-0.2-0.1-0.3-0.3-0.4c-0.2-0.1-0.4-0.1-0.5-0.1c-0.2,0-0.4,0.1-0.6,0.2
		c-0.2,0.1-0.3,0.2-0.5,0.3c-0.2,0.1-0.3,0.3-0.4,0.4c-0.1,0.2-0.3,0.3-0.4,0.4c0,0-0.1,0.1-0.2,0.2c-0.1,0.1-0.1,0.2-0.2,0.3
		c-0.1,0.1-0.1,0.2-0.2,0.3c-0.1,0.1-0.1,0.1-0.1,0.1L27.3,21.7L27.3,21.7z M28.9,14.9c0.1,0,0.1-0.1,0.1-0.1
		c1.1-0.4,2.2-0.8,3.2-1.3c0.1,0,0.2-0.1,0.2-0.1c0.1,0,0.1,0,0.2,0c0.1,0,0.1,0,0.2,0c0.1,0,0.1,0,0.1,0.1c0,0.1,0,0.2-0.1,0.3
		c-0.1,0.1-0.1,0.2-0.2,0.2c-0.4,0.3-0.8,0.6-1.2,0.9c-0.4,0.3-0.9,0.4-1.4,0.4c-0.2,0-0.4,0-0.6,0c-0.2,0-0.4-0.1-0.5-0.3
		c0,0,0,0,0-0.1C28.8,15,28.8,15,28.9,14.9z"/>
	<path fill="#006B6A" d="M32.8,30.5l2.3-14l0,0c0,0-0.1-0.1-0.2-0.1c-0.1-0.1-0.2-0.1-0.3-0.2c-0.1-0.1-0.2-0.1-0.3-0.2
		c-0.1-0.1-0.2-0.1-0.2-0.1c-0.1-0.1-0.2-0.1-0.3-0.2c-0.1-0.1-0.1-0.2-0.2-0.3l0.3,0l1.4,0.4l0,0c0,0,0,0,0-0.1c0,0,0,0,0,0
		c0,0,0,0.1,0.1,0.1c0,0,0,0.1,0.1,0.1l1.9,0.7c0,0,0.1,0,0.1,0.1s0.1,0.1,0.2,0.1c0.1,0,0.2,0.1,0.2,0.1c0.1,0,0.1,0.1,0.2,0.1
		c0.3,0.2,0.6,0.4,0.9,0.7c0.3,0.2,0.6,0.5,0.8,0.8c0.2,0.3,0.4,0.6,0.6,0.9c0.1,0.3,0.2,0.7,0.3,1.1c0,0.6-0.1,1.2-0.4,1.7
		c-0.3,0.5-0.7,0.9-1.2,1.3c-0.5,0.4-1,0.6-1.6,0.8s-1.2,0.3-1.7,0.4c-0.2,0-0.4,0-0.5,0c-0.2,0-0.4,0-0.5,0c0,0-0.1,0-0.1,0.1
		l-1.5,6.1C33,30.8,33,30.9,32.9,31c0,0,0,0,0,0l0,0c0,0,0,0,0-0.2C32.8,30.7,32.8,30.6,32.8,30.5L32.8,30.5L32.8,30.5z M34.9,24.1
		c0,0,0.1,0,0.2-0.1c0.1,0,0.3-0.1,0.4-0.1c0.2,0,0.3-0.1,0.5-0.1c0.2,0,0.3-0.1,0.4-0.1c0,0,0.1,0,0.2-0.1c0.1,0,0.2-0.1,0.4-0.2
		s0.3-0.1,0.4-0.2c0.1-0.1,0.2-0.1,0.3-0.1c0.2-0.1,0.5-0.3,0.7-0.5c0.2-0.2,0.5-0.4,0.6-0.6c0.2-0.2,0.3-0.5,0.4-0.7
		c0.1-0.3,0.2-0.5,0.1-0.8c0-0.3-0.1-0.5-0.2-0.8c-0.1-0.2-0.3-0.5-0.4-0.7c-0.2-0.2-0.3-0.4-0.5-0.6c-0.2-0.2-0.4-0.3-0.6-0.5
		c-0.1,0-0.2-0.1-0.3-0.2c-0.1-0.1-0.2-0.1-0.3-0.2l-1.6-0.8l0,0l-0.1,1.8l-0.8,5.5L34.9,24.1z"/>
	<path fill="#006B6A" d="M41.2,21.9l0.1-1.7c0,0,0-0.1,0-0.2c0-0.1,0-0.2,0.1-0.3c0-0.1,0.1-0.2,0.1-0.4c0-0.1,0.1-0.2,0.1-0.3
		c0,0,0-0.1,0.1-0.2c0-0.1,0.1-0.3,0.1-0.4c0.1-0.1,0.1-0.3,0.2-0.4c0-0.1,0.1-0.2,0.1-0.3c0.1-0.3,0.2-0.5,0.4-0.8
		c0.2-0.3,0.4-0.5,0.6-0.8c0.2-0.2,0.5-0.4,0.7-0.6c0.3-0.2,0.6-0.3,0.9-0.3l0.3,0c0,0,0.1,0,0.1,0c0.1,0,0.1,0,0.1,0.1
		c0,0,0,0,0,0.1c-0.4,0.1-0.7,0.3-1.1,0.5c-0.3,0.3-0.6,0.6-0.7,0.9l-0.6,1.3l-0.4,1.8l-0.1,1.5l0,0.3c0,0.2,0,0.4,0.1,0.7
		c0,0.3,0.1,0.5,0.2,0.8c0.1,0.2,0.2,0.4,0.4,0.6c0.2,0.2,0.4,0.2,0.7,0.2c0.4,0,0.8-0.2,1.2-0.4c0.4-0.3,0.7-0.6,0.9-0.9
		c0-0.1,0.1-0.1,0.2-0.2c0.1-0.1,0.1-0.2,0.2-0.3c0.1-0.1,0.1-0.2,0.2-0.3c0.1-0.1,0.1-0.1,0.1-0.2l0.6-1.6c0,0,0-0.1,0-0.2
		c0-0.1,0-0.2,0.1-0.3c0-0.1,0-0.2,0.1-0.3c0-0.1,0-0.2,0.1-0.3c0-0.1,0-0.2,0-0.3c0-0.2,0-0.3,0-0.3l0-0.3c0-0.6-0.2-1.1-0.5-1.4
		c-0.3-0.4-0.8-0.5-1.4-0.5l-0.3,0c0,0-0.1,0.1-0.3,0.1c-0.1,0.1-0.2,0.1-0.4,0.2c-0.1,0.1-0.3,0.1-0.4,0.2
		c-0.1,0.1-0.2,0.1-0.3,0.1c-0.1,0-0.1,0-0.2,0c0,0-0.1,0-0.1,0l-0.2,0l0.2-0.2l1.1-0.8c0.1-0.1,0.3-0.2,0.5-0.2
		c0.2,0,0.3,0,0.5-0.1c0.4,0,0.8,0,1.1,0.2c0.3,0.1,0.6,0.3,0.8,0.6c0.2,0.2,0.4,0.5,0.5,0.9c0.1,0.3,0.2,0.7,0.2,1.1
		c0,0.7,0,1.4-0.2,2c-0.2,0.7-0.4,1.3-0.7,1.9c-0.3,0.6-0.6,1.1-1,1.5c-0.4,0.4-0.9,0.8-1.4,1.1c-0.4,0.2-0.8,0.3-1.3,0.4
		c-0.5,0-0.8,0-1.1-0.2c-0.3-0.2-0.6-0.4-0.8-0.7c-0.2-0.3-0.4-0.6-0.5-1c-0.1-0.4-0.2-0.8-0.2-1.1L41.2,21.9z"/>
	<path fill="#006B6A" d="M49.2,23l0.4-4.1l0.5-2.1c0,0,0-0.1,0-0.1c0-0.1,0.1-0.2,0.1-0.3c0-0.1,0.1-0.2,0.1-0.3
		c0-0.1,0.1-0.2,0.1-0.2c0-0.1,0.1-0.2,0.2-0.3c0.1-0.1,0.2-0.2,0.2-0.2l0,0c0,0.1,0.1,0.1,0.1,0.2c0,0.1,0,0.1,0,0.2
		c0,0,0,0.1,0,0.1c0,0,0,0,0,0.1l-0.8,5.5c0,0,0,0.1,0,0.2c0,0.1-0.1,0.2-0.1,0.3c0,0.1-0.1,0.2-0.1,0.4c0,0.1-0.1,0.2-0.1,0.3
		c-0.1,0.2-0.1,0.4-0.2,0.6c-0.1,0.2-0.2,0.3-0.4,0.5l0,0c-0.1-0.2-0.1-0.4-0.1-0.5l0-0.1L49.2,23z M54.7,22.7l0.7-6.6
		c0,0,0-0.1,0-0.2c0-0.1,0-0.2,0-0.3l0,0l0,0L55,15.8l-1.1,1L51,20.1c0,0-0.1,0.1-0.1,0.1c0,0-0.1,0.1-0.1,0.1c-0.1,0-0.1,0-0.1-0.1
		l0,0c0,0,0-0.1,0-0.2l1-2l1.2-1.7l1.1-1.2c0,0,0,0,0.1-0.1c0.1,0,0.1-0.1,0.2-0.1c0.1,0,0.1-0.1,0.2-0.2c0.1-0.1,0.1-0.1,0.2-0.1
		c0.3-0.2,0.6-0.4,0.9-0.4c0.2,0,0.3,0,0.4,0.1c0.1,0.1,0.2,0.2,0.3,0.3c0.1,0.1,0.1,0.2,0.2,0.4c0,0.1,0.1,0.3,0.1,0.4l0,0.3
		l-0.2,2.3L55,23.5l0,0.1c0,0,0,0.1-0.1,0.1c0,0,0,0.1-0.1,0.1c-0.1-0.1-0.1-0.3-0.2-0.4c0-0.1,0-0.3,0-0.4
		C54.7,22.9,54.7,22.8,54.7,22.7z"/>
	<path fill="#006B6A" d="M56.6,23.1c0-0.1,0-0.3,0.1-0.4l0.4-1.1c0,0,0-0.1,0.1-0.1c0,0,0.1-0.1,0.1-0.1c0.1,0.1,0.1,0.1,0.1,0.2
		c0,0.3,0,0.5-0.1,0.8c-0.1,0.3-0.1,0.5-0.1,0.8c0,0.3,0.1,0.6,0.3,0.7c0.1,0.1,0.4,0.2,0.7,0.1c0.3,0,0.5-0.1,0.8-0.1
		c0.3-0.1,0.5-0.2,0.7-0.3c0.4-0.2,0.7-0.3,0.9-0.5c0.2-0.2,0.3-0.5,0.3-0.9c0-0.2,0-0.4-0.1-0.5c-0.1-0.2-0.1-0.4-0.2-0.5l-1.8-3.2
		c-0.1-0.2-0.2-0.5-0.3-0.8c-0.1-0.3-0.1-0.5-0.1-0.8c0-0.3,0-0.7,0.1-1c0.1-0.3,0.3-0.6,0.5-0.8c0.2-0.2,0.4-0.4,0.7-0.6
		c0.3-0.1,0.6-0.2,0.9-0.2c0.2,0,0.5,0,0.7,0.1c0.2,0.1,0.5,0.1,0.7,0.3c0.2,0.1,0.4,0.3,0.5,0.5c0.1,0.2,0.2,0.4,0.2,0.7
		c0,0.1,0,0.2,0,0.4c0,0.2-0.1,0.3-0.1,0.5c-0.1,0.2-0.1,0.3-0.2,0.4c-0.1,0.1-0.2,0.2-0.3,0.2c0-0.2,0-0.4,0.1-0.5
		c0.1-0.2,0.1-0.4,0.1-0.6c0-0.3-0.2-0.6-0.4-0.8c-0.3-0.2-0.6-0.2-0.9-0.2c-0.4,0-0.8,0.2-1,0.5c-0.3,0.3-0.4,0.7-0.4,1.1
		c0,0.1,0,0.2,0,0.3c0,0.1,0.1,0.2,0.1,0.3l2,3.7c0.1,0.2,0.2,0.4,0.3,0.7c0.1,0.2,0.1,0.5,0.1,0.7c0,0.6-0.1,1.1-0.3,1.4
		c-0.3,0.4-0.7,0.7-1.2,0.9c-0.3,0.1-0.6,0.3-0.9,0.3c-0.3,0.1-0.7,0.1-1,0.2c-0.3,0-0.5,0-0.7,0c-0.2,0-0.4-0.1-0.6-0.2
		c-0.2-0.1-0.3-0.2-0.5-0.4c-0.1-0.2-0.2-0.4-0.2-0.7C56.6,23.4,56.6,23.3,56.6,23.1z"/>
	<path fill="#006B6A" d="M62.6,22.9l0.1-1l0.8-3l0.9-2.1l0.9-1.4c0.1-0.2,0.3-0.4,0.5-0.6c0.2-0.2,0.4-0.4,0.6-0.6
		c0.2-0.2,0.5-0.3,0.7-0.4c0.3-0.1,0.5-0.2,0.8-0.2c0.2,0,0.4,0,0.7,0.1c0.2,0,0.4,0.1,0.6,0.2c0.2,0.1,0.3,0.3,0.5,0.4
		c0.1,0.2,0.2,0.4,0.2,0.6c0,0.4,0,0.8-0.2,1.1c-0.2,0.4-0.4,0.7-0.6,1c-0.2,0.3-0.4,0.6-0.7,0.8c-0.2,0.3-0.5,0.5-0.8,0.7
		c-0.3,0.2-0.6,0.4-0.9,0.6c-0.3,0.1-0.7,0.2-1.1,0.3c-0.1,0-0.2,0-0.3,0c-0.1,0-0.2,0-0.3,0c0,0-0.1,0-0.3,0c-0.2,0-0.2,0-0.3-0.1
		l0,0l0,0l-0.8,2.5l-0.2,1l0,0.1c0,0.1,0,0.1,0.1,0.2c0.1,0,0.1,0,0.2,0.1c0.1,0,0.2,0,0.2,0c0.1,0,0.2,0,0.2,0c0.1,0,0.3,0,0.5-0.1
		c0.2,0,0.3-0.1,0.5-0.1l1.2-0.8l3.3-2.8l0.4-0.2l-0.2,0.3L68,22.1c0,0-0.1,0.1-0.2,0.2c-0.1,0.1-0.2,0.2-0.3,0.3
		c-0.1,0.1-0.2,0.2-0.3,0.3c-0.1,0.1-0.2,0.2-0.2,0.2c-0.4,0.3-0.8,0.6-1.2,0.8c-0.4,0.2-0.9,0.4-1.4,0.4c-0.2,0-0.4,0-0.6,0
		c-0.2,0-0.4-0.1-0.5-0.2c-0.2-0.1-0.3-0.2-0.4-0.4c-0.1-0.2-0.2-0.3-0.2-0.6L62.6,22.9z M64.8,19.1c0.2,0,0.3,0,0.5,0
		c0.2,0,0.3,0,0.5-0.1c0.3-0.1,0.6-0.2,0.9-0.4c0.3-0.2,0.5-0.4,0.8-0.7c0.2-0.2,0.5-0.5,0.7-0.8c0.2-0.3,0.4-0.6,0.5-0.8
		c0.1-0.2,0.2-0.4,0.3-0.6c0.1-0.2,0.1-0.4,0.1-0.6c0-0.2-0.1-0.3-0.3-0.4c-0.2-0.1-0.4-0.1-0.5-0.1c-0.2,0-0.4,0.1-0.6,0.2
		c-0.2,0.1-0.3,0.2-0.5,0.3c-0.2,0.1-0.3,0.3-0.4,0.4c-0.1,0.2-0.3,0.3-0.4,0.4c0,0-0.1,0.1-0.2,0.2c-0.1,0.1-0.1,0.2-0.2,0.3
		c-0.1,0.1-0.1,0.2-0.2,0.3c-0.1,0.1-0.1,0.1-0.1,0.1L64.8,19.1L64.8,19.1z"/>
	<path fill="#006B6A" d="M80.6,20.9c0-0.1,0-0.2,0-0.2c0-0.4,0-0.8,0.1-1.2c0.1-0.4,0.2-0.8,0.4-1.2c0-0.1,0.1-0.2,0.2-0.4
		c0.1-0.2,0.1-0.3,0.2-0.5c0.1-0.2,0.1-0.3,0.2-0.5c0.1-0.1,0.1-0.2,0.1-0.2l0.4-0.6l2.4-2.2l1.3-0.9c0,0,0,0,0.1-0.1
		c0.1,0,0.1-0.1,0.2-0.1c0.1,0,0.2-0.1,0.2-0.1c0.1,0,0.1-0.1,0.2-0.1c0.2-0.1,0.3-0.1,0.5-0.2c0.2,0,0.3-0.1,0.5-0.1
		c0.4,0,0.7,0.1,0.9,0.4l1.1-3.7c0,0,0.1-0.1,0.1-0.3c0.1-0.2,0.1-0.3,0.2-0.5c0,0,0.1-0.1,0.1-0.1c0,0,0.1-0.1,0.1-0.1
		c0,0,0.1,0,0.1,0.1c0,0.1,0,0.1,0,0.1l0,0.1l-1,5.8l0.7-0.7c0.1,0,0.1-0.1,0.2-0.1l0,0l0,0.2c0,0,0,0.1-0.1,0.2
		c0,0.1-0.1,0.2-0.1,0.3c-0.1,0.1-0.1,0.2-0.2,0.3c-0.1,0.1-0.1,0.2-0.1,0.2c0,0-0.1,0.1-0.1,0.2c0,0.1-0.1,0.2-0.1,0.2
		c-0.1,0.1-0.1,0.2-0.2,0.2C89,15.5,89,15.6,89,15.6l0,0.1l-0.3,3c0,0.1,0,0.2,0,0.3c0,0.1,0,0.2,0,0.3l0,0.2l1.9-2.4
		c0,0,0.1-0.1,0.2-0.2c0.1-0.1,0.2-0.2,0.3-0.3c0,0,0.1-0.1,0.1-0.1c0.1,0,0.1-0.1,0.2-0.1l0,0l-0.1,0.3l-2.4,4.4l-0.4,0.3l0,0
		c0,0-0.1,0-0.2-0.1c-0.1,0-0.1-0.1-0.1-0.1c-0.2-0.2-0.3-0.4-0.4-0.6c-0.1-0.3-0.1-0.5-0.2-0.8l0-0.6c0-0.3,0-0.7,0-1
		c0-0.3,0-0.6,0-1l0-0.1l-2.9,2.9l-1.5,1.2c-0.2,0.1-0.4,0.3-0.7,0.4c-0.2,0.1-0.5,0.2-0.7,0.2c-0.3,0-0.5,0-0.7-0.2
		s-0.3-0.4-0.4-0.6C80.7,21.1,80.6,21,80.6,20.9z M81.8,19.9c0,0.1-0.1,0.3-0.1,0.5s0,0.3,0,0.5c0.1,0,0.3-0.1,0.4-0.1
		c0.1-0.1,0.3-0.1,0.3-0.2l1.7-1.2l3.6-3.4l0.5-2.5l0,0c0-0.1-0.1-0.2-0.2-0.3C87.9,13,87.8,13,87.7,13c-0.2,0-0.4,0.1-0.5,0.2
		c-0.2,0.1-0.3,0.2-0.5,0.3c-0.1,0-0.1,0.1-0.2,0.2c-0.1,0.1-0.2,0.2-0.3,0.2c-0.1,0.1-0.2,0.2-0.3,0.2c-0.1,0.1-0.1,0.1-0.1,0.1
		L83,17l-0.6,1.3L81.8,19.9z M89.1,14.5C89.1,14.5,89.1,14.5,89.1,14.5L89.1,14.5C89.1,14.5,89.1,14.5,89.1,14.5z"/>
	<path fill="#006B6A" d="M91,21l0.1-1l0.8-3l0.9-2.1l0.9-1.4c0.1-0.2,0.3-0.4,0.5-0.6c0.2-0.2,0.4-0.4,0.6-0.6
		c0.2-0.2,0.5-0.3,0.7-0.4c0.3-0.1,0.5-0.2,0.8-0.2c0.2,0,0.4,0,0.7,0.1c0.2,0,0.4,0.1,0.6,0.2c0.2,0.1,0.3,0.3,0.5,0.4
		c0.1,0.2,0.2,0.4,0.2,0.6c0,0.4,0,0.8-0.2,1.1c-0.2,0.4-0.4,0.7-0.6,1c-0.2,0.3-0.4,0.6-0.7,0.8c-0.2,0.3-0.5,0.5-0.8,0.7
		c-0.3,0.2-0.6,0.4-0.9,0.6c-0.3,0.1-0.7,0.2-1.1,0.3c-0.1,0-0.2,0-0.3,0c-0.1,0-0.2,0-0.3,0c0,0-0.1,0-0.3,0c-0.2,0-0.2,0-0.3-0.1
		l0,0l0,0l-0.8,2.5L92,21l0,0.1c0,0.1,0,0.1,0.1,0.2c0.1,0,0.1,0,0.2,0.1c0.1,0,0.2,0,0.2,0c0.1,0,0.2,0,0.2,0c0.1,0,0.3,0,0.5-0.1
		c0.2,0,0.3-0.1,0.5-0.1l1.2-0.8l3.3-2.8l0.4-0.2l-0.2,0.3l-2.1,2.5c0,0-0.1,0.1-0.2,0.2c-0.1,0.1-0.2,0.2-0.3,0.3
		c-0.1,0.1-0.2,0.2-0.3,0.3c-0.1,0.1-0.2,0.2-0.2,0.2c-0.4,0.3-0.8,0.6-1.2,0.8c-0.4,0.2-0.9,0.4-1.4,0.4c-0.2,0-0.4,0-0.6,0
		c-0.2,0-0.4-0.1-0.5-0.2c-0.2-0.1-0.3-0.2-0.4-0.4S91,21.3,91,21.1L91,21z M93.1,17.1c0.2,0,0.3,0,0.5,0c0.2,0,0.3,0,0.5-0.1
		c0.3-0.1,0.6-0.2,0.9-0.4c0.3-0.2,0.5-0.4,0.8-0.7c0.2-0.2,0.5-0.5,0.7-0.8c0.2-0.3,0.4-0.6,0.5-0.8c0.1-0.2,0.2-0.4,0.3-0.6
		c0.1-0.2,0.1-0.4,0.1-0.6c0-0.2-0.1-0.3-0.3-0.4c-0.2-0.1-0.4-0.1-0.5-0.1c-0.2,0-0.4,0.1-0.6,0.2c-0.2,0.1-0.3,0.2-0.5,0.3
		c-0.2,0.1-0.3,0.3-0.4,0.4c-0.1,0.2-0.3,0.3-0.4,0.4c0,0-0.1,0.1-0.2,0.2c-0.1,0.1-0.1,0.2-0.2,0.3c-0.1,0.1-0.1,0.2-0.2,0.3
		c-0.1,0.1-0.1,0.1-0.1,0.1L93.1,17.1L93.1,17.1z"/>
	<path fill="#006B6A" d="M108.3,25.3l2.3-14l0,0c0,0-0.1-0.1-0.2-0.1c-0.1-0.1-0.2-0.1-0.3-0.2c-0.1-0.1-0.2-0.1-0.3-0.2
		c-0.1-0.1-0.2-0.1-0.2-0.1c-0.1-0.1-0.2-0.1-0.3-0.2c-0.1-0.1-0.1-0.2-0.2-0.3l0.3,0l1.4,0.4l0,0c0,0,0,0,0-0.1c0,0,0,0,0,0
		c0,0,0,0.1,0.1,0.1c0,0,0,0.1,0.1,0.1l1.9,0.7c0,0,0.1,0,0.1,0.1c0.1,0,0.1,0.1,0.2,0.1c0.1,0,0.2,0.1,0.2,0.1
		c0.1,0,0.1,0.1,0.2,0.1c0.3,0.2,0.6,0.4,0.9,0.7c0.3,0.2,0.6,0.5,0.8,0.8c0.2,0.3,0.4,0.6,0.6,0.9c0.1,0.3,0.2,0.7,0.3,1.1
		c0,0.6-0.1,1.2-0.4,1.7c-0.3,0.5-0.7,0.9-1.2,1.3c-0.5,0.4-1,0.6-1.6,0.8s-1.2,0.3-1.7,0.4c-0.2,0-0.4,0-0.5,0c-0.2,0-0.4,0-0.5,0
		c0,0-0.1,0-0.1,0.1l-1.5,6.1c-0.1,0.2-0.2,0.3-0.2,0.3c0,0,0,0,0,0l0,0c0,0,0,0,0-0.2C108.4,25.5,108.3,25.4,108.3,25.3L108.3,25.3
		L108.3,25.3z M110.4,18.9c0,0,0.1,0,0.2-0.1c0.1,0,0.3-0.1,0.4-0.1c0.2,0,0.3-0.1,0.5-0.1c0.2,0,0.3-0.1,0.4-0.1c0,0,0.1,0,0.2-0.1
		c0.1,0,0.2-0.1,0.4-0.2c0.1-0.1,0.3-0.1,0.4-0.2c0.1-0.1,0.2-0.1,0.3-0.1c0.2-0.1,0.5-0.3,0.7-0.5c0.2-0.2,0.5-0.4,0.6-0.6
		c0.2-0.2,0.3-0.5,0.4-0.7c0.1-0.3,0.2-0.5,0.1-0.8c0-0.3-0.1-0.5-0.2-0.8c-0.1-0.2-0.3-0.5-0.4-0.7c-0.2-0.2-0.3-0.4-0.5-0.6
		c-0.2-0.2-0.4-0.3-0.6-0.5c-0.1,0-0.2-0.1-0.3-0.2c-0.1-0.1-0.2-0.1-0.3-0.2l-1.6-0.8l0,0l-0.1,1.8l-0.8,5.5L110.4,18.9z"/>
	<path fill="#006B6A" d="M116.9,18.5l0.1-2l0.6-2.7l0.9-2.2c0,0,0-0.1,0.1-0.2c0-0.1,0.1-0.2,0.2-0.3c0.1-0.1,0.1-0.2,0.2-0.3
		c0.1-0.1,0.1-0.2,0.2-0.3c0.1-0.1,0.1-0.2,0.2-0.3c0.1-0.1,0.2-0.1,0.3-0.2l0,0.4l-0.5,1.8l0,0c0,0,0,0,0,0c0,0,0.1-0.1,0.1-0.2
		c0.1-0.1,0.1-0.2,0.2-0.2c0.1-0.1,0.1-0.2,0.2-0.2c0.1-0.1,0.1-0.1,0.1-0.2l1.5-1.7c0,0,0,0,0.1-0.1s0.1-0.1,0.2-0.2
		c0.1-0.1,0.2-0.1,0.2-0.2c0.1-0.1,0.1-0.1,0.2-0.1c0.1-0.1,0.2-0.1,0.4-0.2c0.1-0.1,0.3-0.1,0.4-0.1c0.2,0,0.4,0,0.5,0.1
		s0.2,0.2,0.3,0.3c0.1,0.1,0.2,0.3,0.2,0.4c0,0.2,0.1,0.3,0.1,0.5l0,0.2c0,0.1,0,0.1,0,0.3c0,0.1,0,0.3,0,0.4c0,0.1,0,0.3,0,0.4
		c0,0.1,0,0.2,0,0.3c0,0,0,0.1,0,0.2c0,0.1,0,0.2-0.1,0.3c0,0.1-0.1,0.2-0.1,0.3c0,0.1-0.1,0.2-0.1,0.3c0,0,0,0.1-0.1,0.2
		c0,0.1-0.1,0.2-0.1,0.2c0,0,0,0-0.1,0c0,0,0,0,0-0.1c0-0.1,0-0.1-0.1-0.3c0-0.1,0-0.2,0-0.2l-0.2-2.3c0,0,0-0.1,0-0.2
		c0-0.1-0.1-0.2-0.1-0.2c0,0,0,0,0-0.1c-0.1,0-0.1,0-0.1,0c0,0-0.1,0.1-0.2,0.1c-0.1,0-0.1,0.1-0.1,0.1l-2,2.2l-2.4,3.7l-0.8,3.8
		c0,0,0,0.1,0,0.1c0,0,0,0-0.1,0.1c0,0.1,0,0.1-0.1,0.1l0,0c0,0,0,0-0.1,0c0,0,0,0,0-0.1c-0.1-0.2-0.2-0.4-0.2-0.6s-0.1-0.5-0.1-0.7
		L116.9,18.5z"/>
	<path fill="#006B6A" d="M124.2,16.8l0.1-1.8l0.8-3.2c0,0,0-0.1,0.1-0.2c0-0.1,0.1-0.3,0.2-0.4c0.1-0.2,0.1-0.3,0.2-0.5
		c0.1-0.2,0.1-0.3,0.1-0.4c0.1-0.1,0.1-0.3,0.2-0.4c0.1-0.1,0.2-0.2,0.3-0.3l0,0c0.1,0,0.1,0,0.1,0.1c0,0.1,0,0.1,0,0.2
		c0,0,0,0.1,0,0.1l-1.2,7.2c0,0,0,0.1,0,0.3s0,0.3,0,0.4l0,0c0,0.1,0,0.2,0.1,0.3c0,0.1,0.1,0.2,0.1,0.3c0,0.1,0,0.1-0.1,0.1
		c-0.2,0-0.3,0-0.4-0.2c-0.1-0.1-0.2-0.3-0.3-0.5c-0.1-0.2-0.1-0.4-0.1-0.6c0-0.2-0.1-0.3-0.1-0.5L124.2,16.8z M126,6.9
		c0.1-0.1,0.3-0.1,0.4-0.1c0.2,0,0.4,0,0.7,0.1c0.2,0.1,0.3,0.3,0.3,0.6c0,0.2-0.1,0.3-0.2,0.3c-0.1,0.1-0.3,0.1-0.4,0.1
		c-0.2,0-0.4,0-0.7-0.1c-0.2-0.1-0.3-0.3-0.4-0.5C125.8,7.1,125.9,7,126,6.9z"/>
	<path fill="#006B6A" d="M127.4,17.6l0.4-4.1l0.5-2.1c0,0,0-0.1,0-0.1s0.1-0.2,0.1-0.3c0-0.1,0.1-0.2,0.1-0.3c0-0.1,0.1-0.2,0.1-0.2
		c0-0.1,0.1-0.2,0.2-0.3c0.1-0.1,0.2-0.2,0.2-0.2l0,0c0,0.1,0.1,0.1,0.1,0.2c0,0.1,0,0.1,0,0.2c0,0,0,0.1,0,0.1c0,0,0,0,0,0.1
		l-0.8,5.5c0,0,0,0.1,0,0.2c0,0.1-0.1,0.2-0.1,0.3c0,0.1-0.1,0.2-0.1,0.4c0,0.1-0.1,0.2-0.1,0.3c-0.1,0.2-0.1,0.4-0.2,0.6
		c-0.1,0.2-0.2,0.3-0.4,0.5l0,0c-0.1-0.2-0.1-0.4-0.1-0.5l0-0.1L127.4,17.6z M132.9,17.3l0.7-6.6c0,0,0-0.1,0-0.2c0-0.1,0-0.2,0-0.3
		l0,0l0,0l-0.4,0.3l-1.1,1l-2.9,3.3c0,0-0.1,0.1-0.1,0.1c0,0-0.1,0.1-0.1,0.1c-0.1,0-0.1,0-0.1-0.1l0,0c0,0,0-0.1,0-0.2l1-2l1.2-1.7
		l1.1-1.2c0,0,0,0,0.1-0.1s0.1-0.1,0.2-0.1c0.1,0,0.1-0.1,0.2-0.2c0.1-0.1,0.1-0.1,0.2-0.1c0.3-0.2,0.6-0.4,0.9-0.4
		c0.2,0,0.3,0,0.4,0.1c0.1,0.1,0.2,0.2,0.3,0.3c0.1,0.1,0.1,0.2,0.2,0.4c0,0.1,0.1,0.3,0.1,0.4l0,0.3l-0.2,2.3l-1.3,5.4l0,0.1
		c0,0,0,0.1-0.1,0.1c0,0,0,0.1-0.1,0.1c-0.1-0.1-0.1-0.3-0.2-0.4c0-0.1,0-0.3,0-0.4C132.9,17.5,132.9,17.4,132.9,17.3z"/>
	<path fill="#006B6A" d="M135.3,17.6l0.1-1.2l0.5-1.9l0.9-1.9l1.1-1.7l1.1-1.2c0,0,0.1-0.1,0.3-0.2c0.2-0.1,0.3-0.2,0.4-0.3
		c0.2-0.2,0.4-0.3,0.6-0.4c0.2-0.1,0.5-0.1,0.7-0.2c0.3,0,0.5,0,0.7,0.1c0.2,0.1,0.4,0.2,0.5,0.4s0.2,0.3,0.3,0.6
		c0.1,0.2,0.1,0.4,0.1,0.7c0,0.1,0,0.2,0,0.3c0,0.2,0,0.3,0,0.5c0,0.2,0,0.3-0.1,0.4c0,0.1-0.1,0.2-0.2,0.2c0,0,0,0-0.1,0s0,0,0-0.1
		l-0.1-1.2c0-0.3-0.1-0.5-0.3-0.7c-0.2-0.2-0.4-0.3-0.7-0.3c-0.2,0-0.4,0.1-0.7,0.2c-0.2,0.1-0.4,0.3-0.6,0.5l-1.3,1.6l-1.2,2.1
		c0,0,0,0.1-0.1,0.2s-0.1,0.3-0.2,0.4c-0.1,0.2-0.1,0.3-0.2,0.5c-0.1,0.2-0.1,0.3-0.1,0.4c-0.1,0.3-0.2,0.7-0.3,1.1
		c-0.1,0.4-0.1,0.8-0.1,1.2c0,0.1,0,0.1,0,0.2c0,0.1,0,0.2,0,0.3c0,0.1,0,0.2,0.1,0.2c0,0.1,0.1,0.1,0.2,0.1l0.1,0l1.5-0.7l4.5-3.3
		l0.5-0.2l0,0c0,0,0,0,0,0.1c0,0,0,0.1,0,0.1c0,0.1-0.1,0.1-0.1,0.2c-0.1,0.1-0.1,0.1-0.1,0.2l-2.4,2.5l-1.8,1.3
		c0,0-0.1,0.1-0.2,0.1c-0.1,0.1-0.2,0.1-0.4,0.2c-0.1,0.1-0.3,0.2-0.5,0.2c-0.2,0.1-0.3,0.1-0.4,0.2c-0.3,0.1-0.5,0.2-0.8,0.2
		c-0.3,0-0.5,0-0.6-0.1c-0.2-0.1-0.3-0.3-0.4-0.4c-0.1-0.2-0.2-0.4-0.3-0.6C135.4,18.1,135.3,17.9,135.3,17.6L135.3,17.6z"/>
	<path fill="#006B6A" d="M143.3,15.5l0.1-1.8l0.8-3.2c0,0,0-0.1,0.1-0.2c0-0.1,0.1-0.3,0.2-0.4c0.1-0.2,0.1-0.3,0.2-0.5
		c0.1-0.2,0.1-0.3,0.1-0.4c0.1-0.1,0.1-0.3,0.2-0.4c0.1-0.1,0.2-0.2,0.3-0.3l0,0c0.1,0,0.1,0,0.1,0.1c0,0.1,0,0.1,0,0.2
		c0,0,0,0.1,0,0.1l-1.2,7.2c0,0,0,0.1,0,0.3c0,0.2,0,0.3,0,0.4l0,0c0,0.1,0,0.2,0.1,0.3c0,0.1,0.1,0.2,0.1,0.3c0,0.1,0,0.1-0.1,0.1
		c-0.2,0-0.3,0-0.4-0.2c-0.1-0.1-0.2-0.3-0.3-0.5c-0.1-0.2-0.1-0.4-0.1-0.6c0-0.2-0.1-0.3-0.1-0.5L143.3,15.5z M145.2,5.6
		c0.1-0.1,0.3-0.1,0.4-0.1c0.2,0,0.4,0,0.7,0.1c0.2,0.1,0.3,0.3,0.3,0.6c0,0.2-0.1,0.3-0.2,0.3c-0.1,0.1-0.3,0.1-0.4,0.1
		c-0.2,0-0.4,0-0.7-0.1c-0.2-0.1-0.3-0.3-0.4-0.5C145,5.8,145,5.7,145.2,5.6z"/>
	<path fill="#006B6A" d="M145.9,22.6l2.3-14l0,0c0,0-0.1-0.1-0.2-0.1c-0.1-0.1-0.2-0.1-0.3-0.2c-0.1-0.1-0.2-0.1-0.3-0.2
		c-0.1-0.1-0.2-0.1-0.2-0.1c-0.1-0.1-0.2-0.1-0.3-0.2c-0.1-0.1-0.1-0.2-0.2-0.3l0.3,0l1.4,0.4l0,0c0,0,0,0,0-0.1c0,0,0,0,0,0
		c0,0,0,0.1,0.1,0.1c0,0,0,0.1,0.1,0.1l1.9,0.7c0,0,0.1,0,0.1,0.1c0.1,0,0.1,0.1,0.2,0.1c0.1,0,0.2,0.1,0.2,0.1
		c0.1,0,0.1,0.1,0.2,0.1c0.3,0.2,0.6,0.4,0.9,0.7c0.3,0.2,0.6,0.5,0.8,0.8c0.2,0.3,0.4,0.6,0.6,0.9c0.1,0.3,0.2,0.7,0.3,1.1
		c0,0.6-0.1,1.2-0.4,1.7c-0.3,0.5-0.7,0.9-1.2,1.3c-0.5,0.4-1,0.6-1.6,0.8s-1.2,0.3-1.7,0.4c-0.2,0-0.4,0-0.5,0c-0.2,0-0.4,0-0.5,0
		c0,0-0.1,0-0.1,0.1l-1.5,6.1c-0.1,0.2-0.2,0.3-0.2,0.3c0,0,0,0,0,0l0,0c0,0,0,0,0-0.2C146,22.9,146,22.8,145.9,22.6L145.9,22.6
		L145.9,22.6z M148.1,16.3c0,0,0.1,0,0.2-0.1c0.1,0,0.3-0.1,0.4-0.1c0.2,0,0.3-0.1,0.5-0.1c0.2,0,0.3-0.1,0.4-0.1c0,0,0.1,0,0.2-0.1
		c0.1,0,0.2-0.1,0.4-0.2s0.3-0.1,0.4-0.2c0.1-0.1,0.2-0.1,0.3-0.1c0.2-0.1,0.5-0.3,0.7-0.5c0.2-0.2,0.5-0.4,0.6-0.6
		c0.2-0.2,0.3-0.5,0.4-0.7c0.1-0.3,0.2-0.5,0.1-0.8c0-0.3-0.1-0.5-0.2-0.8c-0.1-0.2-0.3-0.5-0.4-0.7c-0.2-0.2-0.3-0.4-0.5-0.6
		s-0.4-0.3-0.6-0.5c-0.1,0-0.2-0.1-0.3-0.2c-0.1-0.1-0.2-0.1-0.3-0.2l-1.6-0.8l0,0l-0.1,1.8l-0.8,5.5L148.1,16.3z"/>
	<path fill="#006B6A" d="M154.2,16.6l0.1-1l0.8-3l0.9-2.1l0.9-1.4c0.1-0.2,0.3-0.4,0.5-0.6s0.4-0.4,0.6-0.6c0.2-0.2,0.5-0.3,0.7-0.4
		c0.3-0.1,0.5-0.2,0.8-0.2c0.2,0,0.4,0,0.7,0.1c0.2,0,0.4,0.1,0.6,0.2c0.2,0.1,0.3,0.3,0.5,0.4c0.1,0.2,0.2,0.4,0.2,0.6
		c0,0.4,0,0.8-0.2,1.1c-0.2,0.4-0.4,0.7-0.6,1c-0.2,0.3-0.4,0.6-0.7,0.8c-0.2,0.3-0.5,0.5-0.8,0.7c-0.3,0.2-0.6,0.4-0.9,0.6
		c-0.3,0.1-0.7,0.2-1.1,0.3c-0.1,0-0.2,0-0.3,0c-0.1,0-0.2,0-0.3,0c0,0-0.1,0-0.3,0c-0.2,0-0.2,0-0.3-0.1l0,0l0,0l-0.8,2.5l-0.2,1
		l0,0.1c0,0.1,0,0.1,0.1,0.2c0.1,0,0.1,0,0.2,0.1c0.1,0,0.2,0,0.2,0c0.1,0,0.2,0,0.2,0c0.1,0,0.3,0,0.5-0.1c0.2,0,0.3-0.1,0.5-0.1
		l1.2-0.8l3.3-2.8l0.4-0.2l-0.2,0.3l-2.1,2.5c0,0-0.1,0.1-0.2,0.2c-0.1,0.1-0.2,0.2-0.3,0.3c-0.1,0.1-0.2,0.2-0.3,0.3
		c-0.1,0.1-0.2,0.2-0.2,0.2c-0.4,0.3-0.8,0.6-1.2,0.8c-0.4,0.2-0.9,0.4-1.4,0.4c-0.2,0-0.4,0-0.6,0c-0.2,0-0.4-0.1-0.5-0.2
		c-0.2-0.1-0.3-0.2-0.4-0.4c-0.1-0.2-0.2-0.3-0.2-0.6L154.2,16.6z M156.3,12.7c0.2,0,0.3,0,0.5,0c0.2,0,0.3,0,0.5-0.1
		c0.3-0.1,0.6-0.2,0.9-0.4c0.3-0.2,0.5-0.4,0.8-0.7c0.2-0.2,0.5-0.5,0.7-0.8c0.2-0.3,0.4-0.6,0.5-0.8c0.1-0.2,0.2-0.4,0.3-0.6
		c0.1-0.2,0.1-0.4,0.1-0.6c0-0.2-0.1-0.3-0.3-0.4c-0.2-0.1-0.4-0.1-0.5-0.1c-0.2,0-0.4,0.1-0.6,0.2c-0.2,0.1-0.3,0.2-0.5,0.3
		c-0.2,0.1-0.3,0.3-0.4,0.4c-0.1,0.2-0.3,0.3-0.4,0.4c0,0-0.1,0.1-0.2,0.2c-0.1,0.1-0.1,0.2-0.2,0.3c-0.1,0.1-0.1,0.2-0.2,0.3
		c-0.1,0.1-0.1,0.1-0.1,0.1L156.3,12.7L156.3,12.7z"/>
	<path fill="#006B6A" d="M172.2,14.6c0-0.1,0-0.2,0-0.2c0-0.4,0-0.8,0.1-1.2c0.1-0.4,0.2-0.8,0.4-1.2c0-0.1,0.1-0.2,0.2-0.4
		c0.1-0.2,0.1-0.3,0.2-0.5c0.1-0.2,0.1-0.3,0.2-0.5c0.1-0.1,0.1-0.2,0.1-0.2l0.4-0.6l2.4-2.2l1.3-0.9c0,0,0,0,0.1-0.1
		c0.1,0,0.1-0.1,0.2-0.1c0.1,0,0.2-0.1,0.2-0.1c0.1,0,0.1-0.1,0.2-0.1c0.2-0.1,0.3-0.1,0.5-0.2c0.2,0,0.3-0.1,0.5-0.1
		c0.4,0,0.7,0.1,0.9,0.4l1.1-3.7c0,0,0.1-0.1,0.1-0.3c0.1-0.2,0.1-0.3,0.2-0.5c0,0,0.1-0.1,0.1-0.1c0,0,0.1-0.1,0.1-0.1
		c0,0,0.1,0,0.1,0.1c0,0.1,0,0.1,0,0.1l0,0.1l-1,5.8l0.7-0.7c0.1,0,0.1-0.1,0.2-0.1l0,0l0,0.2c0,0,0,0.1-0.1,0.2
		c0,0.1-0.1,0.2-0.1,0.3c-0.1,0.1-0.1,0.2-0.2,0.3c-0.1,0.1-0.1,0.2-0.1,0.2c0,0-0.1,0.1-0.1,0.2c0,0.1-0.1,0.2-0.1,0.2
		c-0.1,0.1-0.1,0.2-0.2,0.2c-0.1,0.1-0.1,0.1-0.1,0.2l0,0.1l-0.3,3c0,0.1,0,0.2,0,0.3c0,0.1,0,0.2,0,0.3l0,0.2l1.9-2.4
		c0,0,0.1-0.1,0.2-0.2c0.1-0.1,0.2-0.2,0.3-0.3c0,0,0.1-0.1,0.1-0.1c0.1,0,0.1-0.1,0.2-0.1l0,0l-0.1,0.3l-2.4,4.4l-0.4,0.3l0,0
		c0,0-0.1,0-0.2-0.1c-0.1,0-0.1-0.1-0.1-0.1c-0.2-0.2-0.3-0.4-0.4-0.6c-0.1-0.3-0.1-0.5-0.2-0.8l0-0.6c0-0.3,0-0.7,0-1
		c0-0.3,0-0.6,0-1l0-0.1l-2.9,2.9l-1.5,1.2c-0.2,0.1-0.4,0.3-0.7,0.4c-0.2,0.1-0.5,0.2-0.7,0.2c-0.3,0-0.5,0-0.7-0.2
		c-0.2-0.2-0.3-0.4-0.4-0.6C172.2,14.7,172.2,14.7,172.2,14.6z M173.4,13.5c0,0.1-0.1,0.3-0.1,0.5c0,0.2,0,0.3,0,0.5
		c0.1,0,0.3-0.1,0.4-0.1c0.1-0.1,0.3-0.1,0.3-0.2l1.7-1.2l3.6-3.4l0.5-2.5l0,0c0-0.1-0.1-0.2-0.2-0.3c-0.1-0.1-0.2-0.1-0.3-0.1
		c-0.2,0-0.4,0.1-0.5,0.2c-0.2,0.1-0.3,0.2-0.5,0.3c-0.1,0-0.1,0.1-0.2,0.2c-0.1,0.1-0.2,0.2-0.3,0.2c-0.1,0.1-0.2,0.2-0.3,0.2
		c-0.1,0.1-0.1,0.1-0.1,0.1l-2.7,2.8l-0.6,1.3L173.4,13.5z M180.7,8.1C180.7,8.1,180.7,8.2,180.7,8.1L180.7,8.1
		C180.7,8.1,180.7,8.1,180.7,8.1z"/>
	<path fill="#006B6A" d="M183.3,2.2c0.2-0.4,0.5-0.7,0.7-1c0,0,0-0.1,0.1-0.2c0-0.1,0-0.2,0-0.2c0.1-0.2,0.2-0.4,0.4-0.6
		S184.8,0,185,0c0.2,0,0.4,0,0.5,0.2c0.1,0.1,0.2,0.3,0.2,0.5c0,0.4-0.1,0.7-0.4,0.9l-2,1.8c0,0-0.1,0.1-0.1,0.1c0,0-0.1,0-0.1,0
		c-0.1,0-0.2-0.1-0.2-0.2C182.9,3,183,2.6,183.3,2.2z M185.1,1.1C185.1,1.1,185.1,1.1,185.1,1.1L185.1,1.1
		C185.1,1.1,185.1,1.1,185.1,1.1z"/>
	<path fill="#006B6A" d="M187.3,12.4l0.1-1.8l0.8-3.2c0,0,0-0.1,0.1-0.2c0-0.1,0.1-0.3,0.2-0.4c0.1-0.2,0.1-0.3,0.2-0.5
		c0.1-0.2,0.1-0.3,0.1-0.4c0.1-0.1,0.1-0.3,0.2-0.4c0.1-0.1,0.2-0.2,0.3-0.3l0,0c0.1,0,0.1,0,0.1,0.1c0,0.1,0,0.1,0,0.2
		c0,0,0,0.1,0,0.1l-1.2,7.2c0,0,0,0.1,0,0.3c0,0.2,0,0.3,0,0.4l0,0c0,0.1,0,0.2,0.1,0.3c0,0.1,0.1,0.2,0.1,0.3c0,0.1,0,0.1-0.1,0.1
		c-0.2,0-0.3,0-0.4-0.2c-0.1-0.1-0.2-0.3-0.3-0.5c-0.1-0.2-0.1-0.4-0.1-0.6c0-0.2-0.1-0.3-0.1-0.5L187.3,12.4z M189.1,2.5
		c0.1-0.1,0.3-0.1,0.4-0.1c0.2,0,0.4,0,0.7,0.1c0.2,0.1,0.3,0.3,0.3,0.6c0,0.2-0.1,0.3-0.2,0.3c-0.1,0.1-0.3,0.1-0.4,0.1
		c-0.2,0-0.4,0-0.7-0.1c-0.2-0.1-0.3-0.3-0.4-0.5C188.9,2.7,189,2.6,189.1,2.5z"/>
	<path fill="#006B6A" d="M190.2,13.8l0.1-1.2l0.5-1.9l0.9-1.9l1.1-1.7l1.1-1.2c0,0,0.1-0.1,0.3-0.2c0.2-0.1,0.3-0.2,0.4-0.3
		c0.2-0.2,0.4-0.3,0.6-0.4c0.2-0.1,0.5-0.1,0.7-0.2c0.3,0,0.5,0,0.7,0.1c0.2,0.1,0.4,0.2,0.5,0.4s0.2,0.3,0.3,0.6
		c0.1,0.2,0.1,0.4,0.1,0.7c0,0.1,0,0.2,0,0.3c0,0.2,0,0.3,0,0.5c0,0.2,0,0.3-0.1,0.4c0,0.1-0.1,0.2-0.2,0.2c0,0,0,0-0.1,0
		c0,0,0,0,0-0.1l-0.1-1.2c0-0.3-0.1-0.5-0.3-0.7c-0.2-0.2-0.4-0.3-0.7-0.3c-0.2,0-0.4,0.1-0.7,0.2c-0.2,0.1-0.4,0.3-0.6,0.5
		l-1.3,1.6l-1.2,2.1c0,0,0,0.1-0.1,0.2c0,0.1-0.1,0.3-0.2,0.4c-0.1,0.2-0.1,0.3-0.2,0.5c-0.1,0.2-0.1,0.3-0.1,0.4
		c-0.1,0.3-0.2,0.7-0.3,1.1c-0.1,0.4-0.1,0.8-0.1,1.2c0,0.1,0,0.1,0,0.2c0,0.1,0,0.2,0,0.3c0,0.1,0,0.2,0.1,0.2
		c0,0.1,0.1,0.1,0.2,0.1l0.1,0l1.5-0.7l4.5-3.3l0.5-0.2l0,0c0,0,0,0,0,0.1c0,0,0,0.1,0,0.1c0,0.1-0.1,0.1-0.1,0.2
		c-0.1,0.1-0.1,0.1-0.1,0.2l-2.4,2.5l-1.8,1.3c0,0-0.1,0.1-0.2,0.1c-0.1,0.1-0.2,0.1-0.4,0.2c-0.1,0.1-0.3,0.2-0.5,0.2
		c-0.2,0.1-0.3,0.1-0.4,0.2c-0.3,0.1-0.5,0.2-0.8,0.2c-0.3,0-0.5,0-0.6-0.1c-0.2-0.1-0.3-0.3-0.4-0.4c-0.1-0.2-0.2-0.4-0.3-0.6
		C190.3,14.3,190.2,14.1,190.2,13.8L190.2,13.8z"/>
	<path fill="#006B6A" d="M198.2,11.7l0.1-1.8l0.8-3.2c0,0,0-0.1,0.1-0.2c0-0.1,0.1-0.3,0.2-0.4c0.1-0.2,0.1-0.3,0.2-0.5
		c0.1-0.2,0.1-0.3,0.1-0.4c0.1-0.1,0.1-0.3,0.2-0.4c0.1-0.1,0.2-0.2,0.3-0.3l0,0c0.1,0,0.1,0,0.1,0.1c0,0.1,0,0.1,0,0.2
		c0,0,0,0.1,0,0.1l-1.2,7.2c0,0,0,0.1,0,0.3c0,0.2,0,0.3,0,0.4l0,0c0,0.1,0,0.2,0.1,0.3c0,0.1,0.1,0.2,0.1,0.3c0,0.1,0,0.1-0.1,0.1
		c-0.2,0-0.3,0-0.4-0.2c-0.1-0.1-0.2-0.3-0.3-0.5c-0.1-0.2-0.1-0.4-0.1-0.6c0-0.2-0.1-0.3-0.1-0.5L198.2,11.7z M200.1,1.8
		c0.1-0.1,0.3-0.1,0.4-0.1c0.2,0,0.4,0,0.7,0.1c0.2,0.1,0.3,0.3,0.3,0.6c0,0.2-0.1,0.3-0.2,0.3c-0.1,0.1-0.3,0.1-0.4,0.1
		c-0.2,0-0.4,0-0.7-0.1c-0.2-0.1-0.3-0.3-0.4-0.5C199.9,2,199.9,1.8,200.1,1.8z"/>
	<path fill="#006B6A" stroke="#006B6A" stroke-width="0.511" stroke-miterlimit="10" d="M2.9,51.2l1-3.8l1.7-3.9l-2.7,2.6
		c0,0,0,0-0.1,0.1c-0.1,0-0.1,0.1-0.2,0.1c-0.1,0.1-0.1,0.1-0.2,0.2c-0.1,0.1-0.1,0.1-0.2,0.1c-0.2,0.1-0.4,0.2-0.6,0.3
		C1.5,46.9,1.3,47,1,47c-0.3,0-0.6-0.1-0.7-0.3S0,46.3,0,46c0-0.1,0-0.2,0-0.3c0-0.1,0-0.2,0-0.3l0.3-1.2l1.9-3.9c0,0,0-0.1,0.1-0.1
		c0-0.1,0.1-0.1,0.1-0.2c0-0.1,0.1-0.1,0.2-0.2c0.1-0.1,0.1-0.1,0.1-0.2c0.2-0.2,0.4-0.5,0.6-0.8c0.2-0.3,0.5-0.5,0.7-0.7
		s0.5-0.4,0.8-0.5c0.3-0.1,0.6-0.2,0.9-0.3c0.3,0,0.6,0.1,1,0.2c0.3,0.2,0.5,0.5,0.5,0.8c0,0-0.1,0-0.1,0C7,38.2,6.8,38.1,6.7,38
		c-0.1-0.1-0.3-0.1-0.6-0.1c-0.3,0-0.6,0.1-0.8,0.3c-0.2,0.2-0.5,0.3-0.7,0.5c0,0-0.1,0.1-0.2,0.2C4.4,39,4.4,39,4.3,39.1
		c-0.1,0.1-0.1,0.2-0.2,0.2C4,39.4,4,39.5,4,39.5c0,0.1-0.1,0.2-0.2,0.3c-0.1,0.1-0.2,0.2-0.3,0.4c-0.1,0.1-0.2,0.2-0.2,0.3
		c-0.1,0.1-0.1,0.2-0.1,0.2l-1.7,3.7c0,0,0,0.1-0.1,0.2c0,0.1-0.1,0.2-0.1,0.3c0,0.1-0.1,0.2-0.1,0.3c0,0.1-0.1,0.2-0.1,0.3
		c0,0.1,0,0.3,0,0.4l0,0.1c0,0,0.1,0,0.1,0c0,0,0.1-0.1,0.2-0.1c0.1,0,0.1-0.1,0.1-0.1l5.2-4.5l1-2.1l0.2-0.2l0,0.4l-0.2,0.9
		l0.5-0.5l0.1,0l0,0.1c0,0.1,0,0.2,0,0.3c0,0.1-0.1,0.2-0.1,0.3l-0.7,1.1l-2.9,8l-0.6,3l3.7-3.8l0.8-0.5L8,48.9l-4.2,5.2
		c-0.3,0.1-0.4,0.1-0.5,0.1l0,0c0,0,0,0-0.1,0l-0.3-0.4l-0.1-1L2.9,51.2z"/>
	<path fill="#006B6A" stroke="#006B6A" stroke-width="0.511" stroke-miterlimit="10" d="M14,46.2l0.7-4.3l-1.9,2.8
		c0,0-0.1,0.1-0.1,0.2c-0.1,0.1-0.2,0.2-0.3,0.3c-0.1,0.1-0.2,0.2-0.3,0.3c-0.1,0.1-0.2,0.2-0.2,0.3c-0.2,0.2-0.4,0.4-0.7,0.5
		c-0.3,0.2-0.5,0.3-0.8,0.3c-0.4,0-0.6-0.1-0.8-0.4c-0.2-0.3-0.3-0.6-0.3-0.9l0-0.2l0.3-1.9l1.1-3.5l1-2.3c0,0,0.1-0.1,0.1-0.2
		c0.1-0.1,0.1-0.2,0.2-0.3c0-0.1,0-0.1,0.1-0.1c0,0,0,0,0.1,0c0.1,0,0.1,0,0.1,0.1l0,0.1l-1.7,7.3c0,0,0,0.1,0,0.1
		c0,0.1,0,0.2,0,0.3c0,0.1,0,0.2,0,0.3c0,0.1,0,0.2,0,0.2l0,0.1c0,0,0,0.1,0,0.1c0,0,0,0,0.1,0l0.4-0.2l4.3-4.9l0-0.1
		c0-0.1,0-0.2,0.1-0.3c0-0.2,0.1-0.3,0.2-0.5c0.1-0.2,0.1-0.3,0.2-0.5s0.1-0.3,0.1-0.3c0,0,0-0.1,0.1-0.1c0-0.1,0.1-0.1,0.1-0.2
		c0-0.1,0.1-0.2,0.1-0.3c0-0.1,0.1-0.2,0.1-0.2c0-0.1,0.1-0.2,0.2-0.2c0.1-0.1,0.1-0.1,0.2-0.2c0,0.1,0,0.1,0.1,0.2
		c0,0.1,0,0.1,0,0.2l0,0.2l-1.4,8.4l1.2-0.6c0.1,0,0.1,0,0.2-0.1c0.1,0,0.1,0,0.1,0.1c0,0.1,0,0.1,0,0.2c0,0.1-0.1,0.1-0.1,0.1
		c-0.1,0.1-0.2,0.2-0.3,0.4c-0.1,0.1-0.3,0.3-0.4,0.4c-0.2,0.1-0.3,0.2-0.5,0.3c-0.2,0.1-0.3,0.1-0.5,0.2c-0.2,0-0.4-0.1-0.5-0.2
		C14,46.8,14,46.6,14,46.4C14,46.4,14,46.3,14,46.2z M14.7,41.8C14.7,41.8,14.7,41.8,14.7,41.8C14.7,41.8,14.7,41.8,14.7,41.8
		L14.7,41.8z"/>
	<path fill="#006B6A" stroke="#006B6A" stroke-width="0.511" stroke-miterlimit="10" d="M16.9,45.6l0.1-1l0.8-3l0.9-2.1l0.9-1.4
		c0.1-0.2,0.3-0.4,0.5-0.6s0.4-0.4,0.6-0.6c0.2-0.2,0.5-0.3,0.7-0.4c0.3-0.1,0.5-0.2,0.8-0.2c0.2,0,0.4,0,0.7,0.1
		c0.2,0,0.4,0.1,0.6,0.2c0.2,0.1,0.3,0.3,0.5,0.4c0.1,0.2,0.2,0.4,0.2,0.6c0,0.4,0,0.8-0.2,1.1c-0.2,0.4-0.4,0.7-0.6,1
		c-0.2,0.3-0.4,0.6-0.7,0.8c-0.2,0.3-0.5,0.5-0.8,0.7c-0.3,0.2-0.6,0.4-0.9,0.6c-0.3,0.1-0.7,0.2-1.1,0.3c-0.1,0-0.2,0-0.3,0
		c-0.1,0-0.2,0-0.3,0c0,0-0.1,0-0.3,0c-0.2,0-0.2,0-0.3-0.1l0,0l0,0l-0.8,2.5l-0.2,1l0,0.1c0,0.1,0,0.1,0.1,0.2c0.1,0,0.1,0,0.2,0.1
		s0.2,0,0.2,0c0.1,0,0.2,0,0.2,0c0.1,0,0.3,0,0.5-0.1c0.2,0,0.3-0.1,0.5-0.1l1.2-0.8l3.3-2.8l0.4-0.2l-0.2,0.3l-2.1,2.5
		c0,0-0.1,0.1-0.2,0.2C22,45,22,45,21.8,45.1c-0.1,0.1-0.2,0.2-0.3,0.3c-0.1,0.1-0.2,0.2-0.2,0.2c-0.4,0.3-0.8,0.6-1.2,0.8
		c-0.4,0.2-0.9,0.4-1.4,0.4c-0.2,0-0.4,0-0.6,0c-0.2,0-0.4-0.1-0.5-0.2c-0.2-0.1-0.3-0.2-0.4-0.4c-0.1-0.2-0.2-0.3-0.2-0.6
		L16.9,45.6z M19.1,41.7c0.2,0,0.3,0,0.5,0c0.2,0,0.3,0,0.5-0.1c0.3-0.1,0.6-0.2,0.9-0.4c0.3-0.2,0.5-0.4,0.8-0.7
		c0.2-0.2,0.5-0.5,0.7-0.8c0.2-0.3,0.4-0.6,0.5-0.8c0.1-0.2,0.2-0.4,0.3-0.6c0.1-0.2,0.1-0.4,0.1-0.6c0-0.2-0.1-0.3-0.3-0.4
		c-0.2-0.1-0.4-0.1-0.5-0.1c-0.2,0-0.4,0.1-0.6,0.2c-0.2,0.1-0.3,0.2-0.5,0.3c-0.2,0.1-0.3,0.3-0.4,0.4c-0.1,0.2-0.3,0.3-0.4,0.4
		c0,0-0.1,0.1-0.2,0.2c-0.1,0.1-0.1,0.2-0.2,0.3c-0.1,0.1-0.1,0.2-0.2,0.3c-0.1,0.1-0.1,0.1-0.1,0.1L19.1,41.7L19.1,41.7z"/>
	<path fill="#006B6A" stroke="#006B6A" stroke-width="0.511" stroke-miterlimit="10" d="M25.3,45l0.7-6.9l0.9-3.5l0.8-1.7
		c0,0,0.1-0.1,0.2-0.3c0.1-0.2,0.2-0.3,0.2-0.4c0.1-0.1,0.2-0.2,0.3-0.3l0,0.3l-2.6,12.4c0,0.2-0.1,0.3-0.2,0.5
		c-0.1,0.2-0.2,0.3-0.3,0.5C25.3,45.5,25.3,45.3,25.3,45L25.3,45z"/>
	<path fill="#006B6A" stroke="#006B6A" stroke-width="0.511" stroke-miterlimit="10" d="M31,49.3l1-3.8l1.7-3.9L31,44.1
		c0,0,0,0-0.1,0.1c-0.1,0-0.1,0.1-0.2,0.1c-0.1,0.1-0.1,0.1-0.2,0.2c-0.1,0.1-0.1,0.1-0.2,0.1c-0.2,0.1-0.4,0.2-0.6,0.3
		c-0.2,0.1-0.4,0.1-0.6,0.2c-0.3,0-0.6-0.1-0.7-0.3s-0.3-0.5-0.3-0.8c0-0.1,0-0.2,0-0.3c0-0.1,0-0.2,0-0.3l0.3-1.2l1.9-3.9
		c0,0,0-0.1,0.1-0.1c0-0.1,0.1-0.1,0.1-0.2c0-0.1,0.1-0.1,0.2-0.2c0.1-0.1,0.1-0.1,0.1-0.2c0.2-0.2,0.4-0.5,0.6-0.8
		c0.2-0.3,0.5-0.5,0.7-0.7c0.3-0.2,0.5-0.4,0.8-0.5c0.3-0.1,0.6-0.2,0.9-0.3c0.3,0,0.6,0.1,1,0.2s0.5,0.5,0.5,0.8c0,0-0.1,0-0.1,0
		c-0.2-0.1-0.4-0.2-0.5-0.3c-0.1-0.1-0.3-0.1-0.6-0.1c-0.3,0-0.6,0.1-0.8,0.3c-0.2,0.2-0.5,0.3-0.7,0.5c0,0-0.1,0.1-0.2,0.2
		c-0.1,0.1-0.1,0.2-0.2,0.2c-0.1,0.1-0.1,0.2-0.2,0.2c-0.1,0.1-0.1,0.1-0.1,0.1c0,0.1-0.1,0.2-0.2,0.3c-0.1,0.1-0.2,0.2-0.3,0.4
		c-0.1,0.1-0.2,0.2-0.2,0.3c-0.1,0.1-0.1,0.2-0.1,0.2l-1.7,3.7c0,0,0,0.1-0.1,0.2c0,0.1-0.1,0.2-0.1,0.3c0,0.1-0.1,0.2-0.1,0.3
		c0,0.1-0.1,0.2-0.1,0.3c0,0.1,0,0.3,0,0.4l0,0.1c0,0,0.1,0,0.1,0c0,0,0.1-0.1,0.2-0.1c0.1,0,0.1-0.1,0.1-0.1l5.2-4.5l1-2.1l0.2-0.2
		l0,0.4l-0.2,0.9l0.5-0.5l0.1,0l0,0.1c0,0.1,0,0.2,0,0.3c0,0.1-0.1,0.2-0.1,0.3l-0.7,1.1l-2.9,8l-0.6,3l3.7-3.8l0.8-0.5l-0.4,0.8
		l-4.2,5.2c-0.3,0.1-0.4,0.1-0.5,0.1l0,0c0,0,0,0-0.1,0L31,51.9l-0.1-1L31,49.3z"/>
	<path fill="#006B6A" stroke="#006B6A" stroke-width="0.511" stroke-miterlimit="10" d="M42.1,44.2l0.7-4.3l-1.9,2.8
		c0,0-0.1,0.1-0.1,0.2c-0.1,0.1-0.2,0.2-0.3,0.3c-0.1,0.1-0.2,0.2-0.3,0.3c-0.1,0.1-0.2,0.2-0.2,0.3c-0.2,0.2-0.4,0.4-0.7,0.5
		c-0.3,0.2-0.5,0.3-0.8,0.3c-0.4,0-0.6-0.1-0.8-0.4c-0.2-0.3-0.3-0.6-0.3-0.9l0-0.2l0.3-1.9l1.1-3.5l1-2.3c0,0,0.1-0.1,0.1-0.2
		c0.1-0.1,0.1-0.2,0.2-0.3c0-0.1,0-0.1,0.1-0.1c0,0,0,0,0.1,0c0.1,0,0.1,0,0.1,0.1l0,0.1l-1.7,7.3c0,0,0,0.1,0,0.1
		c0,0.1,0,0.2,0,0.3c0,0.1,0,0.2,0,0.3c0,0.1,0,0.2,0,0.2l0,0.1c0,0,0,0.1,0,0.1c0,0,0,0,0.1,0l0.4-0.2l4.3-4.9l0-0.1
		c0-0.1,0-0.2,0.1-0.3c0-0.2,0.1-0.3,0.2-0.5c0.1-0.2,0.1-0.3,0.2-0.5c0-0.2,0.1-0.3,0.1-0.3c0,0,0-0.1,0.1-0.1
		c0-0.1,0.1-0.1,0.1-0.2c0-0.1,0.1-0.2,0.1-0.3c0-0.1,0.1-0.2,0.1-0.2c0-0.1,0.1-0.2,0.2-0.2c0.1-0.1,0.1-0.1,0.2-0.2
		c0,0.1,0,0.1,0.1,0.2c0,0.1,0,0.1,0,0.2l0,0.2L43,44.2l1.2-0.6c0.1,0,0.1,0,0.2-0.1c0.1,0,0.1,0,0.1,0.1c0,0.1,0,0.1,0,0.2
		c0,0.1-0.1,0.1-0.1,0.1c-0.1,0.1-0.2,0.2-0.3,0.4c-0.1,0.1-0.3,0.3-0.4,0.4c-0.2,0.1-0.3,0.2-0.5,0.3c-0.2,0.1-0.3,0.1-0.5,0.2
		c-0.2,0-0.4-0.1-0.5-0.2c-0.1-0.2-0.1-0.4-0.1-0.6C42.1,44.4,42.1,44.4,42.1,44.2z M42.8,39.9C42.8,39.9,42.8,39.9,42.8,39.9
		C42.8,39.9,42.8,39.9,42.8,39.9L42.8,39.9z"/>
	<path fill="#006B6A" stroke="#006B6A" stroke-width="0.511" stroke-miterlimit="10" d="M45,43.6l0.1-1l0.8-3l0.9-2.1l0.9-1.4
		c0.1-0.2,0.3-0.4,0.5-0.6c0.2-0.2,0.4-0.4,0.6-0.6c0.2-0.2,0.5-0.3,0.7-0.4c0.3-0.1,0.5-0.2,0.8-0.2c0.2,0,0.4,0,0.7,0.1
		c0.2,0,0.4,0.1,0.6,0.2c0.2,0.1,0.3,0.3,0.5,0.4c0.1,0.2,0.2,0.4,0.2,0.6c0,0.4,0,0.8-0.2,1.1c-0.2,0.4-0.4,0.7-0.6,1
		c-0.2,0.3-0.4,0.6-0.7,0.8c-0.2,0.3-0.5,0.5-0.8,0.7c-0.3,0.2-0.6,0.4-0.9,0.6c-0.3,0.1-0.7,0.2-1.1,0.3c-0.1,0-0.2,0-0.3,0
		c-0.1,0-0.2,0-0.3,0c0,0-0.1,0-0.3,0c-0.2,0-0.2,0-0.3-0.1l0,0l0,0l-0.8,2.5l-0.2,1l0,0.1c0,0.1,0,0.1,0.1,0.2c0.1,0,0.1,0,0.2,0.1
		s0.2,0,0.2,0c0.1,0,0.2,0,0.2,0c0.1,0,0.3,0,0.5-0.1c0.2,0,0.3-0.1,0.5-0.1l1.2-0.8l3.3-2.8l0.4-0.2l-0.2,0.3l-2.1,2.5
		c0,0-0.1,0.1-0.2,0.2c-0.1,0.1-0.2,0.2-0.3,0.3c-0.1,0.1-0.2,0.2-0.3,0.3c-0.1,0.1-0.2,0.2-0.2,0.2c-0.4,0.3-0.8,0.6-1.2,0.8
		c-0.4,0.2-0.9,0.4-1.4,0.4c-0.2,0-0.4,0-0.6,0c-0.2,0-0.4-0.1-0.5-0.2c-0.2-0.1-0.3-0.2-0.4-0.4C45.1,44.2,45,44,45,43.7L45,43.6z
		 M47.2,39.8c0.2,0,0.3,0,0.5,0c0.2,0,0.3,0,0.5-0.1c0.3-0.1,0.6-0.2,0.9-0.4c0.3-0.2,0.5-0.4,0.8-0.7c0.2-0.2,0.5-0.5,0.7-0.8
		c0.2-0.3,0.4-0.6,0.5-0.8c0.1-0.2,0.2-0.4,0.3-0.6c0.1-0.2,0.1-0.4,0.1-0.6c0-0.2-0.1-0.3-0.3-0.4c-0.2-0.1-0.4-0.1-0.5-0.1
		c-0.2,0-0.4,0.1-0.6,0.2c-0.2,0.1-0.3,0.2-0.5,0.3c-0.2,0.1-0.3,0.3-0.4,0.4c-0.1,0.2-0.3,0.3-0.4,0.4c0,0-0.1,0.1-0.2,0.2
		c-0.1,0.1-0.1,0.2-0.2,0.3c-0.1,0.1-0.1,0.2-0.2,0.3c-0.1,0.1-0.1,0.1-0.1,0.1L47.2,39.8L47.2,39.8z"/>
	<path fill="#006B6A" stroke="#006B6A" stroke-width="0.511" stroke-miterlimit="10" d="M52.5,42.9c0-0.1,0-0.3,0.1-0.4l0.4-1.1
		c0,0,0-0.1,0.1-0.1c0,0,0.1-0.1,0.1-0.1c0.1,0.1,0.1,0.1,0.1,0.2c0,0.3,0,0.5-0.1,0.8c-0.1,0.3-0.1,0.5-0.1,0.8
		c0,0.3,0.1,0.6,0.3,0.7c0.1,0.1,0.4,0.2,0.7,0.1c0.3,0,0.5-0.1,0.8-0.1s0.5-0.2,0.7-0.3c0.4-0.2,0.7-0.3,0.9-0.5
		c0.2-0.2,0.3-0.5,0.3-0.9c0-0.2,0-0.4-0.1-0.5c-0.1-0.2-0.1-0.4-0.2-0.5l-1.8-3.2c-0.1-0.2-0.2-0.5-0.3-0.8
		c-0.1-0.3-0.1-0.5-0.1-0.8c0-0.3,0-0.7,0.1-1c0.1-0.3,0.3-0.6,0.5-0.8c0.2-0.2,0.4-0.4,0.7-0.6c0.3-0.1,0.6-0.2,0.9-0.2
		c0.2,0,0.5,0,0.7,0.1c0.2,0.1,0.5,0.1,0.7,0.3c0.2,0.1,0.4,0.3,0.5,0.5c0.1,0.2,0.2,0.4,0.2,0.7c0,0.1,0,0.2,0,0.4
		c0,0.2-0.1,0.3-0.1,0.5c-0.1,0.2-0.1,0.3-0.2,0.4c-0.1,0.1-0.2,0.2-0.3,0.2c0-0.2,0-0.4,0.1-0.5c0.1-0.2,0.1-0.4,0.1-0.6
		c0-0.3-0.2-0.6-0.4-0.8c-0.3-0.2-0.6-0.2-0.9-0.2c-0.4,0-0.8,0.2-1,0.5c-0.3,0.3-0.4,0.7-0.4,1.1c0,0.1,0,0.2,0,0.3
		c0,0.1,0.1,0.2,0.1,0.3l2,3.7c0.1,0.2,0.2,0.4,0.3,0.7c0.1,0.2,0.1,0.5,0.1,0.7c0,0.6-0.1,1.1-0.3,1.4c-0.3,0.4-0.7,0.7-1.2,0.9
		c-0.3,0.1-0.6,0.3-0.9,0.3c-0.3,0.1-0.7,0.1-1,0.2c-0.3,0-0.5,0-0.7,0c-0.2,0-0.4-0.1-0.6-0.2c-0.2-0.1-0.3-0.2-0.5-0.4
		c-0.1-0.2-0.2-0.4-0.2-0.7C52.5,43.1,52.5,43,52.5,42.9z"/>
	<path fill="#006B6A" stroke="#006B6A" stroke-width="0.511" stroke-miterlimit="10" d="M74.4,35.3l0.1-2.6L74,33.1l-1.3,1.6l-2.4,4
		c0,0.1-0.1,0.1-0.2,0.2S70,39,69.9,39.1l0-0.1l-0.5,1.7c-0.1,0.2-0.1,0.4-0.2,0.6c-0.1,0.2-0.2,0.3-0.4,0.5l-0.1-0.5l0.8-5.7
		c0.1-0.4,0.2-0.7,0.3-1.1c0.1-0.4,0.3-0.7,0.5-1c0.1,0.2,0.1,0.4,0.1,0.6c0,0.2,0.1,0.4,0.1,0.6l0,0.2L70,38.4l1.5-3.6l1-1.7
		c0,0,0-0.1,0.1-0.1c0.1-0.1,0.1-0.2,0.2-0.2c0.1-0.1,0.1-0.2,0.2-0.3c0.1-0.1,0.1-0.2,0.2-0.2c0.2-0.2,0.4-0.4,0.6-0.6
		c0.2-0.2,0.5-0.3,0.7-0.3c0.2,0,0.3,0,0.4,0.1c0.1,0.1,0.2,0.2,0.3,0.3c0.1,0.1,0.1,0.3,0.1,0.4c0,0.2,0,0.3,0.1,0.4l0,0.3
		l-0.1,2.5l-0.2,1.2l2.5-3.5c0,0,0-0.1,0.1-0.1c0.1-0.1,0.1-0.1,0.2-0.2c0.1-0.1,0.2-0.2,0.2-0.2c0.1-0.1,0.1-0.1,0.2-0.2
		c0.1-0.1,0.2-0.2,0.4-0.3c0.1-0.1,0.3-0.1,0.5-0.1c0.3,0,0.5,0.1,0.6,0.3c0.1,0.2,0.2,0.5,0.2,0.7l0,0.3l-1,8.3l-0.1,0.2
		c0,0-0.1-0.1-0.2-0.2c-0.1-0.3-0.2-0.6-0.2-0.9c0-0.3-0.1-0.6-0.1-0.9l0-0.1l0.5-6.1l-0.1,0.1l-4,4.5L73.4,43c0,0,0,0.1,0,0.1
		c0,0,0,0.1-0.1,0.1c-0.1,0-0.1,0-0.1-0.1l0-0.7L74.4,35.3z M70,38.5C70,38.5,70,38.5,70,38.5L70,38.5C70,38.5,70,38.5,70,38.5z"/>
	<path fill="#006B6A" stroke="#006B6A" stroke-width="0.511" stroke-miterlimit="10" d="M81.3,39.3l0.1-1.8l0.8-3.2
		c0,0,0-0.1,0.1-0.2c0-0.1,0.1-0.3,0.2-0.4c0.1-0.2,0.1-0.3,0.2-0.5c0.1-0.2,0.1-0.3,0.1-0.4c0.1-0.1,0.1-0.3,0.2-0.4
		c0.1-0.1,0.2-0.2,0.3-0.3l0,0c0.1,0,0.1,0,0.1,0.1c0,0.1,0,0.1,0,0.2c0,0,0,0.1,0,0.1l-1.2,7.2c0,0,0,0.1,0,0.3c0,0.2,0,0.3,0,0.4
		l0,0c0,0.1,0,0.2,0.1,0.3c0,0.1,0.1,0.2,0.1,0.3c0,0.1,0,0.1-0.1,0.1c-0.2,0-0.3,0-0.4-0.2c-0.1-0.1-0.2-0.3-0.3-0.5
		c-0.1-0.2-0.1-0.4-0.1-0.6c0-0.2-0.1-0.3-0.1-0.5L81.3,39.3z M83.1,29.4c0.1-0.1,0.3-0.1,0.4-0.1c0.2,0,0.4,0,0.7,0.1
		c0.2,0.1,0.3,0.3,0.3,0.6c0,0.2-0.1,0.3-0.2,0.3c-0.1,0.1-0.3,0.1-0.4,0.1c-0.2,0-0.4,0-0.7-0.1c-0.2-0.1-0.3-0.3-0.4-0.5
		C82.9,29.5,83,29.4,83.1,29.4z"/>
	<path fill="#006B6A" stroke="#006B6A" stroke-width="0.511" stroke-miterlimit="10" d="M84.5,40l0.4-4.1l0.5-2.1c0,0,0-0.1,0-0.1
		c0-0.1,0.1-0.2,0.1-0.3c0-0.1,0.1-0.2,0.1-0.3c0-0.1,0.1-0.2,0.1-0.2c0-0.1,0.1-0.2,0.2-0.3c0.1-0.1,0.2-0.2,0.2-0.2l0,0
		c0,0.1,0.1,0.1,0.1,0.2c0,0.1,0,0.1,0,0.2c0,0,0,0.1,0,0.1c0,0,0,0,0,0.1l-0.8,5.5c0,0,0,0.1,0,0.2c0,0.1-0.1,0.2-0.1,0.3
		c0,0.1-0.1,0.2-0.1,0.4c0,0.1-0.1,0.2-0.1,0.3c-0.1,0.2-0.1,0.4-0.2,0.6c-0.1,0.2-0.2,0.3-0.4,0.5l0,0c-0.1-0.2-0.1-0.4-0.1-0.5
		l0-0.1L84.5,40z M90.1,39.7l0.7-6.6c0,0,0-0.1,0-0.2c0-0.1,0-0.2,0-0.3l0,0l0,0l-0.4,0.3l-1.1,1l-2.9,3.3c0,0-0.1,0.1-0.1,0.1
		c0,0-0.1,0.1-0.1,0.1c-0.1,0-0.1,0-0.1-0.1l0,0c0,0,0-0.1,0-0.2l1-2l1.2-1.7l1.1-1.2c0,0,0,0,0.1-0.1c0.1,0,0.1-0.1,0.2-0.1
		c0.1,0,0.1-0.1,0.2-0.2c0.1-0.1,0.1-0.1,0.2-0.1c0.3-0.2,0.6-0.4,0.9-0.4c0.2,0,0.3,0,0.4,0.1c0.1,0.1,0.2,0.2,0.3,0.3
		c0.1,0.1,0.1,0.2,0.2,0.4c0,0.1,0.1,0.3,0.1,0.4l0,0.3l-0.2,2.3l-1.3,5.4l0,0.1c0,0,0,0.1-0.1,0.1c0,0,0,0.1-0.1,0.1
		c-0.1-0.1-0.1-0.3-0.2-0.4c0-0.1,0-0.3,0-0.4C90.1,39.9,90.1,39.8,90.1,39.7z"/>
	<path fill="#006B6A" stroke="#006B6A" stroke-width="0.511" stroke-miterlimit="10" d="M96.5,40.4l0.7-4.3l-1.9,2.8
		c0,0-0.1,0.1-0.1,0.2c-0.1,0.1-0.2,0.2-0.3,0.3c-0.1,0.1-0.2,0.2-0.3,0.3c-0.1,0.1-0.2,0.2-0.2,0.3c-0.2,0.2-0.4,0.4-0.7,0.5
		c-0.3,0.2-0.5,0.3-0.8,0.3c-0.4,0-0.6-0.1-0.8-0.4c-0.2-0.3-0.3-0.6-0.3-0.9l0-0.2l0.3-1.9l1.1-3.5l1-2.3c0,0,0.1-0.1,0.1-0.2
		c0.1-0.1,0.1-0.2,0.2-0.3c0-0.1,0-0.1,0.1-0.1c0,0,0,0,0.1,0c0.1,0,0.1,0,0.1,0.1l0,0.1l-1.7,7.3c0,0,0,0.1,0,0.1
		c0,0.1,0,0.2,0,0.3c0,0.1,0,0.2,0,0.3c0,0.1,0,0.2,0,0.2l0,0.1c0,0,0,0.1,0,0.1c0,0,0,0,0.1,0l0.4-0.2l4.3-4.9l0-0.1
		c0-0.1,0-0.2,0.1-0.3c0-0.2,0.1-0.3,0.2-0.5c0.1-0.2,0.1-0.3,0.2-0.5s0.1-0.3,0.1-0.3c0,0,0-0.1,0.1-0.1c0-0.1,0.1-0.1,0.1-0.2
		c0-0.1,0.1-0.2,0.1-0.3c0-0.1,0.1-0.2,0.1-0.2c0-0.1,0.1-0.2,0.2-0.2c0.1-0.1,0.1-0.1,0.2-0.2c0,0.1,0,0.1,0.1,0.2
		c0,0.1,0,0.1,0,0.2l0,0.2l-1.4,8.4l1.2-0.6c0.1,0,0.1,0,0.2-0.1c0.1,0,0.1,0,0.1,0.1c0,0.1,0,0.1,0,0.2c0,0.1-0.1,0.1-0.1,0.1
		c-0.1,0.1-0.2,0.2-0.3,0.4c-0.1,0.1-0.3,0.3-0.4,0.4c-0.2,0.1-0.3,0.2-0.5,0.3c-0.2,0.1-0.3,0.1-0.5,0.2c-0.2,0-0.4-0.1-0.5-0.2
		c-0.1-0.2-0.1-0.4-0.1-0.6C96.5,40.7,96.5,40.6,96.5,40.4z M97.2,36.1C97.2,36.1,97.2,36.1,97.2,36.1
		C97.2,36.1,97.2,36.1,97.2,36.1L97.2,36.1z"/>
	<path fill="#006B6A" stroke="#006B6A" stroke-width="0.511" stroke-miterlimit="10" d="M100.5,39.2c0-0.1,0-0.2,0-0.4
		c0-0.2,0-0.3,0-0.3l0.7-3l1.5-3.7l-1.7,0.1c-0.4,0-0.7-0.1-1-0.2c0-0.1,0-0.1,0.1-0.2c0.1-0.1,0.1-0.1,0.2-0.1l3.2-0.9l0.9-1.5
		l0.5-0.5l0,0c0,0.3,0,0.6-0.2,0.9c-0.1,0.3-0.2,0.5-0.3,0.8l0,0l2.1-0.4l0.2,0c0.2,0,0.4,0,0.5,0c0.2,0,0.3,0.1,0.5,0.2
		c-0.1,0.1-0.1,0.2-0.2,0.2c-0.1,0.1-0.2,0.1-0.3,0.2l-3.2,1.2c0,0-0.1,0-0.1,0.1l-1.9,5.2l-0.4,1.7c-0.1,0.2-0.1,0.3-0.1,0.5
		c0,0.1,0,0.3,0,0.5l0,0.4c0,0.1,0.1,0.2,0.2,0.3s0.2,0,0.3,0c0.1,0,0.2,0,0.3,0c0.1,0,0.1,0,0.2-0.1l1.7-0.7c0.1,0,0.2-0.1,0.3-0.1
		c0,0,0.1,0,0.1,0c0,0,0.1,0,0.1,0c0,0.1,0,0.1-0.1,0.2c-0.1,0.1-0.1,0.1-0.1,0.1c0,0-0.1,0.1-0.2,0.2c-0.1,0.1-0.2,0.2-0.3,0.2
		c-0.1,0.1-0.2,0.2-0.3,0.2c-0.1,0.1-0.2,0.1-0.2,0.2c-0.2,0.2-0.5,0.3-0.8,0.5c-0.3,0.1-0.6,0.2-0.9,0.2c-0.2,0-0.5,0-0.6-0.1
		c-0.2-0.1-0.3-0.2-0.4-0.4c-0.1-0.2-0.2-0.3-0.3-0.6c-0.1-0.2-0.1-0.4-0.1-0.6L100.5,39.2z"/>
	<path fill="#006B6A" stroke="#006B6A" stroke-width="0.511" stroke-miterlimit="10" d="M106.1,39.4l0.1-1l0.8-3l0.9-2.1l0.9-1.4
		c0.1-0.2,0.3-0.4,0.5-0.6s0.4-0.4,0.6-0.6c0.2-0.2,0.5-0.3,0.7-0.4c0.3-0.1,0.5-0.2,0.8-0.2c0.2,0,0.4,0,0.7,0.1
		c0.2,0,0.4,0.1,0.6,0.2c0.2,0.1,0.3,0.3,0.5,0.4c0.1,0.2,0.2,0.4,0.2,0.6c0,0.4,0,0.8-0.2,1.1c-0.2,0.4-0.4,0.7-0.6,1
		c-0.2,0.3-0.4,0.6-0.7,0.8c-0.2,0.3-0.5,0.5-0.8,0.7c-0.3,0.2-0.6,0.4-0.9,0.6c-0.3,0.1-0.7,0.2-1.1,0.3c-0.1,0-0.2,0-0.3,0
		c-0.1,0-0.2,0-0.3,0c0,0-0.1,0-0.3,0c-0.2,0-0.2,0-0.3-0.1l0,0l0,0l-0.8,2.5l-0.2,1l0,0.1c0,0.1,0,0.1,0.1,0.2c0.1,0,0.1,0,0.2,0.1
		c0.1,0,0.2,0,0.2,0c0.1,0,0.2,0,0.2,0c0.1,0,0.3,0,0.5-0.1c0.2,0,0.3-0.1,0.5-0.1l1.2-0.8l3.3-2.8l0.4-0.2l-0.2,0.3l-2.1,2.5
		c0,0-0.1,0.1-0.2,0.2c-0.1,0.1-0.2,0.2-0.3,0.3c-0.1,0.1-0.2,0.2-0.3,0.3c-0.1,0.1-0.2,0.2-0.2,0.2c-0.4,0.3-0.8,0.6-1.2,0.8
		c-0.4,0.2-0.9,0.4-1.4,0.4c-0.2,0-0.4,0-0.6,0c-0.2,0-0.4-0.1-0.5-0.2c-0.2-0.1-0.3-0.2-0.4-0.4c-0.1-0.2-0.2-0.3-0.2-0.6
		L106.1,39.4z M108.2,35.5c0.2,0,0.3,0,0.5,0c0.2,0,0.3,0,0.5-0.1c0.3-0.1,0.6-0.2,0.9-0.4c0.3-0.2,0.5-0.4,0.8-0.7s0.5-0.5,0.7-0.8
		c0.2-0.3,0.4-0.6,0.5-0.8c0.1-0.2,0.2-0.4,0.3-0.6c0.1-0.2,0.1-0.4,0.1-0.6c0-0.2-0.1-0.3-0.3-0.4c-0.2-0.1-0.4-0.1-0.5-0.1
		c-0.2,0-0.4,0.1-0.6,0.2c-0.2,0.1-0.3,0.2-0.5,0.3c-0.2,0.1-0.3,0.3-0.4,0.4c-0.1,0.2-0.3,0.3-0.4,0.4c0,0-0.1,0.1-0.2,0.2
		c-0.1,0.1-0.1,0.2-0.2,0.3c-0.1,0.1-0.1,0.2-0.2,0.3c-0.1,0.1-0.1,0.1-0.1,0.1L108.2,35.5L108.2,35.5z"/>
	<path fill="#006B6A" stroke="#006B6A" stroke-width="0.511" stroke-miterlimit="10" d="M113.5,38.6c0-0.1,0-0.3,0.1-0.4l0.4-1.1
		c0,0,0-0.1,0.1-0.1c0,0,0.1-0.1,0.1-0.1c0.1,0.1,0.1,0.1,0.1,0.2c0,0.3,0,0.5-0.1,0.8c-0.1,0.3-0.1,0.5-0.1,0.8
		c0,0.3,0.1,0.6,0.3,0.7c0.1,0.1,0.4,0.2,0.7,0.1c0.3,0,0.5-0.1,0.8-0.1c0.3-0.1,0.5-0.2,0.7-0.3c0.4-0.2,0.7-0.3,0.9-0.5
		c0.2-0.2,0.3-0.5,0.3-0.9c0-0.2,0-0.4-0.1-0.5c-0.1-0.2-0.1-0.4-0.2-0.5l-1.8-3.2c-0.1-0.2-0.2-0.5-0.3-0.8
		c-0.1-0.3-0.1-0.5-0.1-0.8c0-0.3,0-0.7,0.1-1c0.1-0.3,0.3-0.6,0.5-0.8c0.2-0.2,0.4-0.4,0.7-0.6c0.3-0.1,0.6-0.2,0.9-0.2
		c0.2,0,0.5,0,0.7,0.1c0.2,0.1,0.5,0.1,0.7,0.3c0.2,0.1,0.4,0.3,0.5,0.5c0.1,0.2,0.2,0.4,0.2,0.7c0,0.1,0,0.2,0,0.4
		c0,0.2-0.1,0.3-0.1,0.5c-0.1,0.2-0.1,0.3-0.2,0.4c-0.1,0.1-0.2,0.2-0.3,0.2c0-0.2,0-0.4,0.1-0.5c0.1-0.2,0.1-0.4,0.1-0.6
		c0-0.3-0.2-0.6-0.4-0.8c-0.3-0.2-0.6-0.2-0.9-0.2c-0.4,0-0.8,0.2-1,0.5c-0.3,0.3-0.4,0.7-0.4,1.1c0,0.1,0,0.2,0,0.3
		c0,0.1,0.1,0.2,0.1,0.3l2,3.7c0.1,0.2,0.2,0.4,0.3,0.7c0.1,0.2,0.1,0.5,0.1,0.7c0,0.6-0.1,1.1-0.3,1.4c-0.3,0.4-0.7,0.7-1.2,0.9
		c-0.3,0.1-0.6,0.3-0.9,0.3c-0.3,0.1-0.7,0.1-1,0.2c-0.3,0-0.5,0-0.7,0c-0.2,0-0.4-0.1-0.6-0.2c-0.2-0.1-0.3-0.2-0.5-0.4
		c-0.1-0.2-0.2-0.4-0.2-0.7C113.5,38.9,113.5,38.8,113.5,38.6z"/>
	<path fill="#006B6A" d="M128.8,37.6c0-0.1,0-0.3,0.1-0.4l0.4-1.1c0,0,0-0.1,0.1-0.1c0,0,0.1-0.1,0.1-0.1c0.1,0.1,0.1,0.1,0.1,0.2
		c0,0.3,0,0.5-0.1,0.8c-0.1,0.3-0.1,0.5-0.1,0.8c0,0.3,0.1,0.6,0.3,0.7c0.1,0.1,0.4,0.2,0.7,0.1c0.3,0,0.5-0.1,0.8-0.1
		c0.3-0.1,0.5-0.2,0.7-0.3c0.4-0.2,0.7-0.3,0.9-0.5c0.2-0.2,0.3-0.5,0.3-0.9c0-0.2,0-0.4-0.1-0.5c-0.1-0.2-0.1-0.4-0.2-0.5l-1.8-3.2
		c-0.1-0.2-0.2-0.5-0.3-0.8c-0.1-0.3-0.1-0.5-0.1-0.8c0-0.3,0-0.7,0.1-1c0.1-0.3,0.3-0.6,0.5-0.8c0.2-0.2,0.4-0.4,0.7-0.6
		c0.3-0.1,0.6-0.2,0.9-0.2c0.2,0,0.5,0,0.7,0.1c0.2,0.1,0.5,0.1,0.7,0.3c0.2,0.1,0.4,0.3,0.5,0.5c0.1,0.2,0.2,0.4,0.2,0.7
		c0,0.1,0,0.2,0,0.4c0,0.2-0.1,0.3-0.1,0.5c-0.1,0.2-0.1,0.3-0.2,0.4c-0.1,0.1-0.2,0.2-0.3,0.2c0-0.2,0-0.4,0.1-0.5
		c0.1-0.2,0.1-0.4,0.1-0.6c0-0.3-0.2-0.6-0.4-0.8c-0.3-0.2-0.6-0.2-0.9-0.2c-0.4,0-0.8,0.2-1,0.5c-0.3,0.3-0.4,0.7-0.4,1.1
		c0,0.1,0,0.2,0,0.3c0,0.1,0.1,0.2,0.1,0.3l2,3.7c0.1,0.2,0.2,0.4,0.3,0.7c0.1,0.2,0.1,0.5,0.1,0.7c0,0.6-0.1,1.1-0.3,1.4
		c-0.3,0.4-0.7,0.7-1.2,0.9c-0.3,0.1-0.6,0.3-0.9,0.3c-0.3,0.1-0.7,0.1-1,0.2c-0.3,0-0.5,0-0.7,0c-0.2,0-0.4-0.1-0.6-0.2
		c-0.2-0.1-0.3-0.2-0.5-0.4c-0.1-0.2-0.2-0.4-0.2-0.7C128.8,37.8,128.8,37.7,128.8,37.6z"/>
	<path fill="#006B6A" d="M134.9,37.4l0.1-1l0.8-3l0.9-2.1l0.9-1.4c0.1-0.2,0.3-0.4,0.5-0.6s0.4-0.4,0.6-0.6c0.2-0.2,0.5-0.3,0.7-0.4
		c0.3-0.1,0.5-0.2,0.8-0.2c0.2,0,0.4,0,0.7,0.1c0.2,0,0.4,0.1,0.6,0.2c0.2,0.1,0.3,0.3,0.5,0.4c0.1,0.2,0.2,0.4,0.2,0.6
		c0,0.4,0,0.8-0.2,1.1c-0.2,0.4-0.4,0.7-0.6,1c-0.2,0.3-0.4,0.6-0.7,0.8c-0.2,0.3-0.5,0.5-0.8,0.7c-0.3,0.2-0.6,0.4-0.9,0.6
		c-0.3,0.1-0.7,0.2-1.1,0.3c-0.1,0-0.2,0-0.3,0c-0.1,0-0.2,0-0.3,0c0,0-0.1,0-0.3,0c-0.2,0-0.2,0-0.3-0.1l0,0l0,0l-0.8,2.5l-0.2,1
		l0,0.1c0,0.1,0,0.1,0.1,0.2c0.1,0,0.1,0,0.2,0.1s0.2,0,0.2,0c0.1,0,0.2,0,0.2,0c0.1,0,0.3,0,0.5-0.1c0.2,0,0.3-0.1,0.5-0.1l1.2-0.8
		l3.3-2.8l0.4-0.2l-0.2,0.3l-2.1,2.5c0,0-0.1,0.1-0.2,0.2c-0.1,0.1-0.2,0.2-0.3,0.3c-0.1,0.1-0.2,0.2-0.3,0.3
		c-0.1,0.1-0.2,0.2-0.2,0.2c-0.4,0.3-0.8,0.6-1.2,0.8c-0.4,0.2-0.9,0.4-1.4,0.4c-0.2,0-0.4,0-0.6,0c-0.2,0-0.4-0.1-0.5-0.2
		c-0.2-0.1-0.3-0.2-0.4-0.4c-0.1-0.2-0.2-0.3-0.2-0.6L134.9,37.4z M137.1,33.5c0.2,0,0.3,0,0.5,0c0.2,0,0.3,0,0.5-0.1
		c0.3-0.1,0.6-0.2,0.9-0.4c0.3-0.2,0.5-0.4,0.8-0.7c0.2-0.2,0.5-0.5,0.7-0.8c0.2-0.3,0.4-0.6,0.5-0.8c0.1-0.2,0.2-0.4,0.3-0.6
		c0.1-0.2,0.1-0.4,0.1-0.6c0-0.2-0.1-0.3-0.3-0.4c-0.2-0.1-0.4-0.1-0.5-0.1c-0.2,0-0.4,0.1-0.6,0.2c-0.2,0.1-0.3,0.2-0.5,0.3
		c-0.2,0.1-0.3,0.3-0.4,0.4c-0.1,0.2-0.3,0.3-0.4,0.4c0,0-0.1,0.1-0.2,0.2c-0.1,0.1-0.1,0.2-0.2,0.3c-0.1,0.1-0.1,0.2-0.2,0.3
		c-0.1,0.1-0.1,0.1-0.1,0.1L137.1,33.5L137.1,33.5z"/>
	<path fill="#006B6A" d="M148,36.9l0.7-4.3l-1.9,2.8c0,0-0.1,0.1-0.1,0.2c-0.1,0.1-0.2,0.2-0.3,0.3s-0.2,0.2-0.3,0.3
		c-0.1,0.1-0.2,0.2-0.2,0.3c-0.2,0.2-0.4,0.4-0.7,0.5c-0.3,0.2-0.5,0.3-0.8,0.3c-0.4,0-0.6-0.1-0.8-0.4c-0.2-0.3-0.3-0.6-0.3-0.9
		l0-0.2l0.3-1.9l1.1-3.5l1-2.3c0,0,0.1-0.1,0.1-0.2c0.1-0.1,0.1-0.2,0.2-0.3c0-0.1,0-0.1,0.1-0.1c0,0,0,0,0.1,0c0.1,0,0.1,0,0.1,0.1
		l0,0.1l-1.7,7.3c0,0,0,0.1,0,0.1c0,0.1,0,0.2,0,0.3c0,0.1,0,0.2,0,0.3c0,0.1,0,0.2,0,0.2l0,0.1c0,0,0,0.1,0,0.1c0,0,0,0,0.1,0
		l0.4-0.2l4.3-4.9l0-0.1c0-0.1,0-0.2,0.1-0.3c0-0.2,0.1-0.3,0.2-0.5c0.1-0.2,0.1-0.3,0.2-0.5c0-0.2,0.1-0.3,0.1-0.3
		c0,0,0-0.1,0.1-0.1c0-0.1,0.1-0.1,0.1-0.2c0-0.1,0.1-0.2,0.1-0.3c0-0.1,0.1-0.2,0.1-0.2c0-0.1,0.1-0.2,0.2-0.2
		c0.1-0.1,0.1-0.1,0.2-0.2c0,0.1,0,0.1,0.1,0.2c0,0.1,0,0.1,0,0.2l0,0.2l-1.4,8.4l1.2-0.6c0.1,0,0.1,0,0.2-0.1c0.1,0,0.1,0,0.1,0.1
		c0,0.1,0,0.1,0,0.2c0,0.1-0.1,0.1-0.1,0.1c-0.1,0.1-0.2,0.2-0.3,0.4c-0.1,0.1-0.3,0.3-0.4,0.4c-0.2,0.1-0.3,0.2-0.5,0.3
		c-0.2,0.1-0.3,0.1-0.5,0.2c-0.2,0-0.4-0.1-0.5-0.2c-0.1-0.2-0.1-0.4-0.1-0.6C148,37.1,148,37,148,36.9z M148.7,32.5
		C148.7,32.5,148.7,32.5,148.7,32.5C148.7,32.5,148.7,32.5,148.7,32.5L148.7,32.5z"/>
	<path fill="#006B6A" d="M151.4,36.3l0.7-6.9l0.9-3.5l0.8-1.7c0,0,0.1-0.1,0.2-0.3c0.1-0.2,0.2-0.3,0.2-0.4c0.1-0.1,0.2-0.2,0.3-0.3
		l0,0.3L152,35.9c0,0.2-0.1,0.3-0.2,0.5c-0.1,0.2-0.2,0.3-0.3,0.5C151.4,36.7,151.4,36.5,151.4,36.3L151.4,36.3z"/>
	<path fill="#006B6A" d="M154.4,36l0.1-1l0.8-3l0.9-2.1l0.9-1.4c0.1-0.2,0.3-0.4,0.5-0.6c0.2-0.2,0.4-0.4,0.6-0.6
		c0.2-0.2,0.5-0.3,0.7-0.4c0.3-0.1,0.5-0.2,0.8-0.2c0.2,0,0.4,0,0.7,0.1c0.2,0,0.4,0.1,0.6,0.2c0.2,0.1,0.3,0.3,0.5,0.4
		c0.1,0.2,0.2,0.4,0.2,0.6c0,0.4,0,0.8-0.2,1.1c-0.2,0.4-0.4,0.7-0.6,1c-0.2,0.3-0.4,0.6-0.7,0.8c-0.2,0.3-0.5,0.5-0.8,0.7
		c-0.3,0.2-0.6,0.4-0.9,0.6c-0.3,0.1-0.7,0.2-1.1,0.3c-0.1,0-0.2,0-0.3,0c-0.1,0-0.2,0-0.3,0c0,0-0.1,0-0.3,0c-0.2,0-0.2,0-0.3-0.1
		l0,0l0,0l-0.8,2.5l-0.2,1l0,0.1c0,0.1,0,0.1,0.1,0.2c0.1,0,0.1,0,0.2,0.1s0.2,0,0.2,0c0.1,0,0.2,0,0.2,0c0.1,0,0.3,0,0.5-0.1
		c0.2,0,0.3-0.1,0.5-0.1l1.2-0.8l3.3-2.8l0.4-0.2l-0.2,0.3l-2.1,2.5c0,0-0.1,0.1-0.2,0.2c-0.1,0.1-0.2,0.2-0.3,0.3
		c-0.1,0.1-0.2,0.2-0.3,0.3c-0.1,0.1-0.2,0.2-0.2,0.2c-0.4,0.3-0.8,0.6-1.2,0.8c-0.4,0.2-0.9,0.4-1.4,0.4c-0.2,0-0.4,0-0.6,0
		c-0.2,0-0.4-0.1-0.5-0.2c-0.2-0.1-0.3-0.2-0.4-0.4c-0.1-0.2-0.2-0.3-0.2-0.6L154.4,36z M156.6,32.2c0.2,0,0.3,0,0.5,0
		c0.2,0,0.3,0,0.5-0.1c0.3-0.1,0.6-0.2,0.9-0.4c0.3-0.2,0.5-0.4,0.8-0.7s0.5-0.5,0.7-0.8c0.2-0.3,0.4-0.6,0.5-0.8
		c0.1-0.2,0.2-0.4,0.3-0.6c0.1-0.2,0.1-0.4,0.1-0.6c0-0.2-0.1-0.3-0.3-0.4c-0.2-0.1-0.4-0.1-0.5-0.1c-0.2,0-0.4,0.1-0.6,0.2
		c-0.2,0.1-0.3,0.2-0.5,0.3c-0.2,0.1-0.3,0.3-0.4,0.4c-0.1,0.2-0.3,0.3-0.4,0.4c0,0-0.1,0.1-0.2,0.2c-0.1,0.1-0.1,0.2-0.2,0.3
		c-0.1,0.1-0.1,0.2-0.2,0.3c-0.1,0.1-0.1,0.1-0.1,0.1L156.6,32.2L156.6,32.2z"/>
	<path fill="#006B6A" d="M168.5,28.8l0.1-2.6l-0.4,0.4l-1.3,1.6l-2.4,4c0,0.1-0.1,0.1-0.2,0.2c-0.1,0.1-0.1,0.1-0.2,0.1l0-0.1
		l-0.5,1.7c-0.1,0.2-0.1,0.4-0.2,0.6c-0.1,0.2-0.2,0.3-0.4,0.5l-0.1-0.5l0.8-5.7c0.1-0.4,0.2-0.7,0.3-1.1c0.1-0.4,0.3-0.7,0.5-1
		c0.1,0.2,0.1,0.4,0.1,0.6c0,0.2,0.1,0.4,0.1,0.6l0,0.2l-0.4,3.6l1.5-3.6l1-1.7c0,0,0-0.1,0.1-0.1c0.1-0.1,0.1-0.2,0.2-0.2
		c0.1-0.1,0.1-0.2,0.2-0.3c0.1-0.1,0.1-0.2,0.2-0.2c0.2-0.2,0.4-0.4,0.6-0.6c0.2-0.2,0.5-0.3,0.7-0.3c0.2,0,0.3,0,0.4,0.1
		c0.1,0.1,0.2,0.2,0.3,0.3c0.1,0.1,0.1,0.3,0.1,0.4s0,0.3,0.1,0.4l0,0.3l-0.1,2.5l-0.2,1.2l2.5-3.5c0,0,0-0.1,0.1-0.1
		c0.1-0.1,0.1-0.1,0.2-0.2c0.1-0.1,0.2-0.2,0.2-0.2c0.1-0.1,0.1-0.1,0.2-0.2c0.1-0.1,0.2-0.2,0.4-0.3c0.1-0.1,0.3-0.1,0.5-0.1
		c0.3,0,0.5,0.1,0.6,0.3c0.1,0.2,0.2,0.5,0.2,0.7l0,0.3l-1,8.3l-0.1,0.2c0,0-0.1-0.1-0.2-0.2c-0.1-0.3-0.2-0.6-0.2-0.9
		c0-0.3-0.1-0.6-0.1-0.9l0-0.1l0.5-6.1l-0.1,0.1l-4,4.5l-1.5,4.9c0,0,0,0.1,0,0.1c0,0,0,0.1-0.1,0.1c-0.1,0-0.1,0-0.1-0.1l0-0.7
		L168.5,28.8z M164.1,32C164.1,32,164.1,32,164.1,32L164.1,32C164.1,32,164.1,32,164.1,32z"/>
	<path fill="#006B6A" d="M174.9,34.6l0.1-1l0.8-3l0.9-2.1l0.9-1.4c0.1-0.2,0.3-0.4,0.5-0.6s0.4-0.4,0.6-0.6c0.2-0.2,0.5-0.3,0.7-0.4
		c0.3-0.1,0.5-0.2,0.8-0.2c0.2,0,0.4,0,0.7,0.1c0.2,0,0.4,0.1,0.6,0.2c0.2,0.1,0.3,0.3,0.5,0.4c0.1,0.2,0.2,0.4,0.2,0.6
		c0,0.4,0,0.8-0.2,1.1c-0.2,0.4-0.4,0.7-0.6,1c-0.2,0.3-0.4,0.6-0.7,0.8c-0.2,0.3-0.5,0.5-0.8,0.7c-0.3,0.2-0.6,0.4-0.9,0.6
		c-0.3,0.1-0.7,0.2-1.1,0.3c-0.1,0-0.2,0-0.3,0c-0.1,0-0.2,0-0.3,0c0,0-0.1,0-0.3,0c-0.2,0-0.2,0-0.3-0.1l0,0l0,0l-0.8,2.5l-0.2,1
		l0,0.1c0,0.1,0,0.1,0.1,0.2c0.1,0,0.1,0,0.2,0.1c0.1,0,0.2,0,0.2,0c0.1,0,0.2,0,0.2,0c0.1,0,0.3,0,0.5-0.1c0.2,0,0.3-0.1,0.5-0.1
		l1.2-0.8l3.3-2.8l0.4-0.2l-0.2,0.3l-2.1,2.5c0,0-0.1,0.1-0.2,0.2c-0.1,0.1-0.2,0.2-0.3,0.3c-0.1,0.1-0.2,0.2-0.3,0.3
		c-0.1,0.1-0.2,0.2-0.2,0.2c-0.4,0.3-0.8,0.6-1.2,0.8c-0.4,0.2-0.9,0.4-1.4,0.4c-0.2,0-0.4,0-0.6,0c-0.2,0-0.4-0.1-0.5-0.2
		c-0.2-0.1-0.3-0.2-0.4-0.4c-0.1-0.2-0.2-0.3-0.2-0.6L174.9,34.6z M177,30.8c0.2,0,0.3,0,0.5,0c0.2,0,0.3,0,0.5-0.1
		c0.3-0.1,0.6-0.2,0.9-0.4c0.3-0.2,0.5-0.4,0.8-0.7s0.5-0.5,0.7-0.8c0.2-0.3,0.4-0.6,0.5-0.8c0.1-0.2,0.2-0.4,0.3-0.6
		c0.1-0.2,0.1-0.4,0.1-0.6c0-0.2-0.1-0.3-0.3-0.4c-0.2-0.1-0.4-0.1-0.5-0.1c-0.2,0-0.4,0.1-0.6,0.2c-0.2,0.1-0.3,0.2-0.5,0.3
		c-0.2,0.1-0.3,0.3-0.4,0.4c-0.1,0.2-0.3,0.3-0.4,0.4c0,0-0.1,0.1-0.2,0.2c-0.1,0.1-0.1,0.2-0.2,0.3c-0.1,0.1-0.1,0.2-0.2,0.3
		c-0.1,0.1-0.1,0.1-0.1,0.1L177,30.8L177,30.8z"/>
	<path fill="#006B6A" d="M183.1,33.1l0.4-4.1l0.5-2.1c0,0,0-0.1,0-0.1c0-0.1,0.1-0.2,0.1-0.3c0-0.1,0.1-0.2,0.1-0.3
		c0-0.1,0.1-0.2,0.1-0.2c0-0.1,0.1-0.2,0.2-0.3c0.1-0.1,0.2-0.2,0.2-0.2l0,0c0,0.1,0.1,0.1,0.1,0.2c0,0.1,0,0.1,0,0.2
		c0,0,0,0.1,0,0.1c0,0,0,0,0,0.1l-0.8,5.5c0,0,0,0.1,0,0.2c0,0.1-0.1,0.2-0.1,0.3c0,0.1-0.1,0.2-0.1,0.4c0,0.1-0.1,0.2-0.1,0.3
		c-0.1,0.2-0.1,0.4-0.2,0.6c-0.1,0.2-0.2,0.3-0.4,0.5l0,0c-0.1-0.2-0.1-0.4-0.1-0.5l0-0.1L183.1,33.1z M188.7,32.9l0.7-6.6
		c0,0,0-0.1,0-0.2c0-0.1,0-0.2,0-0.3l0,0l0,0l-0.4,0.3l-1.1,1l-2.9,3.3c0,0-0.1,0.1-0.1,0.1c0,0-0.1,0.1-0.1,0.1
		c-0.1,0-0.1,0-0.1-0.1l0,0c0,0,0-0.1,0-0.2l1-2l1.2-1.7l1.1-1.2c0,0,0,0,0.1-0.1c0.1,0,0.1-0.1,0.2-0.1c0.1,0,0.1-0.1,0.2-0.2
		c0.1-0.1,0.1-0.1,0.2-0.1c0.3-0.2,0.6-0.4,0.9-0.4c0.2,0,0.3,0,0.4,0.1c0.1,0.1,0.2,0.2,0.3,0.3c0.1,0.1,0.1,0.2,0.2,0.4
		c0,0.1,0.1,0.3,0.1,0.4l0,0.3l-0.2,2.3l-1.3,5.4l0,0.1c0,0,0,0.1-0.1,0.1c0,0,0,0.1-0.1,0.1c-0.1-0.1-0.1-0.3-0.2-0.4
		c0-0.1,0-0.3,0-0.4C188.7,33.1,188.7,33,188.7,32.9z"/>
	<path fill="#006B6A" d="M192,32.8c0-0.1,0-0.2,0-0.4c0-0.2,0-0.3,0-0.3l0.7-3l1.5-3.7l-1.7,0.1c-0.4,0-0.7-0.1-1-0.2
		c0-0.1,0-0.1,0.1-0.2c0.1-0.1,0.1-0.1,0.2-0.1l3.2-0.9l0.9-1.5l0.5-0.5l0,0c0,0.3,0,0.6-0.2,0.9c-0.1,0.3-0.2,0.5-0.3,0.8l0,0
		l2.1-0.4l0.2,0c0.2,0,0.4,0,0.5,0c0.2,0,0.3,0.1,0.5,0.2c-0.1,0.1-0.1,0.2-0.2,0.2c-0.1,0.1-0.1,0.1-0.3,0.2l-3.2,1.2
		c0,0-0.1,0-0.1,0.1l-1.9,5.2l-0.4,1.7c-0.1,0.2-0.1,0.3-0.1,0.5c0,0.1,0,0.3,0,0.5l0,0.4c0,0.1,0.1,0.2,0.2,0.3c0.1,0,0.2,0,0.3,0
		c0.1,0,0.2,0,0.3,0c0.1,0,0.1,0,0.2-0.1l1.7-0.7c0.1,0,0.2-0.1,0.3-0.1c0,0,0.1,0,0.1,0c0,0,0.1,0,0.1,0c0,0.1,0,0.1-0.1,0.2
		c-0.1,0.1-0.1,0.1-0.1,0.1c0,0-0.1,0.1-0.2,0.2c-0.1,0.1-0.2,0.2-0.3,0.2c-0.1,0.1-0.2,0.2-0.3,0.2c-0.1,0.1-0.2,0.1-0.2,0.2
		c-0.2,0.2-0.5,0.3-0.8,0.5c-0.3,0.1-0.6,0.2-0.9,0.2c-0.2,0-0.5,0-0.6-0.1c-0.2-0.1-0.3-0.2-0.4-0.4c-0.1-0.2-0.2-0.3-0.3-0.6
		c-0.1-0.2-0.1-0.4-0.1-0.6L192,32.8z"/>
	<path fill="#006B6A" d="M209,32.7c0-0.2,0-0.3,0.1-0.4c0.1-0.1,0.2-0.2,0.3-0.3c0.3-0.3,0.5-0.4,0.9-0.6c0.3-0.1,0.7-0.2,1-0.3
		c0.1,0,0.1,0,0.2,0c0.1,0,0.2,0,0.3,0c0.1,0,0.2,0,0.2,0.1c0.1,0,0.1,0.1,0.1,0.2c0,0.1,0,0.3-0.2,0.4c-0.1,0.1-0.2,0.2-0.3,0.3
		c-0.3,0.2-0.6,0.4-1,0.6c-0.4,0.2-0.7,0.3-1.1,0.3c-0.1,0-0.2,0-0.3,0C209.2,32.8,209.1,32.8,209,32.7L209,32.7z M209.6,27
		c0-0.2,0-0.5,0.1-0.7l0.6-2.3L212,20l1.3-2.2c0-0.1,0.1-0.1,0.2-0.2c0.1-0.1,0.2-0.2,0.3-0.2c0,0,0.1,0,0.1,0.1c0,0,0,0.1,0,0.1
		l0,0c0,0.1,0,0.1,0,0.2c0,0.1,0,0.2,0,0.2l-3.1,8.4c0,0,0,0.1-0.1,0.3c0,0.1-0.1,0.3-0.1,0.5c0,0.2-0.1,0.3-0.1,0.5
		c0,0.2-0.1,0.3-0.1,0.4c0,0,0,0.1,0,0.2c0,0.1,0,0.2,0,0.4c0,0.1,0,0.3,0,0.4c0,0.1,0,0.2,0,0.2l-0.1,0.2c-0.1-0.1-0.2-0.1-0.3-0.3
		c-0.1-0.1-0.1-0.3-0.2-0.4s-0.1-0.3-0.1-0.5c0-0.2,0-0.3,0-0.4C209.6,27.5,209.5,27.3,209.6,27z"/>
</g>
<path fill="none" stroke="#8C8C8C" stroke-width="1.5" stroke-miterlimit="10" d="M89.9,47.8c0,0,18.7,7.4,13.9,22.3"/>
<polyline fill="none" stroke="#8C8C8C" stroke-width="1.5" stroke-miterlimit="10" points="98.6,64.3 104.6,70 109.9,64.3 "/>
</svg>
